<svg width="1321" height="1070" viewBox="0 0 1321 1070" fill="none" xmlns="http://www.w3.org/2000/svg">
<rect x="320" width="680" height="680" rx="241" fill="#2D2D2D"/>
<path d="M519.929 424.929C516.024 428.834 516.024 435.166 519.929 439.071L583.569 502.711C587.474 506.616 593.805 506.616 597.711 502.711C601.616 498.805 601.616 492.474 597.711 488.569L541.142 432L597.711 375.431C601.616 371.526 601.616 365.195 597.711 361.289C593.805 357.384 587.474 357.384 583.569 361.289L519.929 424.929ZM793 422L527 422V442L793 442V422Z" fill="#D0D0D0"/>
<path d="M800.071 255.071C803.976 251.166 803.976 244.834 800.071 240.929L736.431 177.289C732.526 173.384 726.195 173.384 722.289 177.289C718.384 181.195 718.384 187.526 722.289 191.431L778.858 248L722.289 304.569C718.384 308.474 718.384 314.805 722.289 318.711C726.195 322.616 732.526 322.616 736.431 318.711L800.071 255.071ZM527 258H793V238H527V258Z" fill="#019A9A"/>
<path d="M238.18 864.9H301.98V875.8H238.18V864.9ZM251.28 892.6V902.5H287.78V892.6H251.28ZM240.38 882.8H299.28V912.3H240.38V882.8ZM249.78 913.3C258.68 927.7 277.58 935.8 303.48 938.2C300.98 940.8 297.98 945.6 296.48 948.9C269.38 945.2 250.88 935.1 239.98 916.3L249.78 913.3ZM263.48 855.7H275.28V901.4C275.28 921.8 270.18 940.4 241.48 949C240.08 946.3 236.58 941.5 233.98 939C260.88 933 263.48 917.7 263.48 901.3V855.7ZM230.58 854.8L241.78 858.4C234.98 875.4 223.98 893.3 212.58 904.6C211.58 901.8 208.38 895.2 206.38 892.3C215.88 883.3 225.18 869.1 230.58 854.8ZM220.88 882.7L232.18 871.3L232.28 871.4V949.2H220.88V882.7ZM336.28 859C347.48 861.1 366.68 863.2 376.98 863.8L375.38 875.6C364.88 874.7 346.28 872.5 334.28 870.6L336.28 859ZM380.58 890.7C377.88 892.5 375.78 894.3 373.98 895.8C369.48 899.7 360.08 908.4 357.68 910.9C358.58 910.9 360.38 911.2 361.58 911.7C364.38 912.5 366.18 914.7 367.58 918.5C368.48 921.1 369.58 924.9 370.38 927.6C371.38 930.7 373.58 932.2 377.48 932.2C385.08 932.2 391.98 931.5 397.08 930.5L396.18 943.6C392.08 944.3 381.78 945 376.58 945C367.18 945 361.98 942.9 359.58 936.5C358.48 933.5 357.38 928.8 356.58 926.3C355.48 922.7 353.38 921.4 351.28 921.4C349.28 921.4 347.18 923 344.78 925.5C341.28 929 333.78 937.2 326.88 945.9L315.08 937.7C316.88 936.1 319.28 934 321.98 931.4C327.18 926.2 347.58 905.9 356.68 896.3C349.68 896.5 337.78 897.5 332.08 898C328.58 898.3 325.48 898.8 323.38 899.2L322.28 885.4C324.58 885.6 328.18 885.7 331.78 885.7C336.58 885.6 359.18 884.6 367.58 883.6C369.38 883.4 372.18 882.8 373.18 882.4L380.58 890.7ZM424.053 863.9C426.853 864.2 430.253 864.4 433.053 864.4C438.453 864.4 459.753 863.9 465.453 863.4C469.653 863.1 471.953 862.7 473.153 862.3L479.553 871.3C477.253 872.8 474.853 874.2 472.653 875.9C467.253 879.7 456.753 888.5 450.353 893.5C453.753 892.6 456.753 892.4 459.853 892.4C476.853 892.4 489.753 903 489.753 917.5C489.753 933.3 477.753 945.8 453.553 945.8C439.653 945.8 429.153 939.5 429.153 929.4C429.153 921.3 436.553 913.9 447.153 913.9C460.853 913.9 468.453 923.1 468.753 934.1L457.053 935.6C456.853 928.4 453.053 923.4 447.153 923.4C443.453 923.4 440.953 925.7 440.953 928.3C440.953 932 445.053 934.5 451.153 934.5C468.053 934.5 476.653 928.1 476.653 917.4C476.653 908.3 467.653 902.2 455.953 902.2C440.553 902.2 430.653 910.4 419.953 922.5L410.853 913.1C417.953 907.5 430.053 897.3 435.853 892.4C441.453 887.8 451.953 879.4 456.853 875C451.753 875.2 437.953 875.7 432.553 876.1C429.853 876.3 426.753 876.5 424.453 876.9L424.053 863.9ZM561.153 871.5C559.753 881.7 557.753 893.4 554.253 905.2C548.253 925.4 539.653 937.8 528.753 937.8C517.553 937.8 508.353 925.5 508.353 908.6C508.353 885.6 528.453 865.8 554.353 865.8C579.053 865.8 594.753 883 594.753 904.9C594.753 925.9 581.853 940.8 556.653 944.7L549.053 932.9C552.953 932.4 555.753 931.9 558.453 931.3C571.153 928.2 581.153 919.1 581.153 904.4C581.153 888.7 571.353 877.5 554.053 877.5C532.853 877.5 521.253 894.8 521.253 907.4C521.253 917.5 525.253 922.4 529.053 922.4C533.353 922.4 537.153 916 541.353 902.5C544.253 893.1 546.453 881.6 547.453 871.1L561.153 871.5ZM641.053 878.6C646.853 879.2 652.553 879.5 658.653 879.5C670.853 879.5 683.353 878.5 693.753 876.3V888.7C683.253 890.3 670.653 891.1 658.653 891.2C652.753 891.2 647.053 891 641.153 890.6L641.053 878.6ZM679.153 861.8C678.853 863.7 678.653 866.1 678.553 868.2C678.353 871.5 678.153 878.4 678.153 885.6C678.153 904 679.753 917 679.753 926.5C679.753 937 674.553 944.6 660.153 944.6C646.253 944.6 637.653 938.9 637.653 928.4C637.653 918.2 646.253 911.2 659.953 911.2C678.753 911.2 690.853 920.6 698.653 927.8L691.853 938.3C680.353 927.6 670.253 920.9 658.953 920.9C653.253 920.9 649.353 923.2 649.353 927C649.353 931.1 653.353 932.9 658.753 932.9C664.853 932.9 666.953 929.7 666.953 923.8C666.953 916.9 665.653 900.1 665.653 885.7C665.653 878.1 665.553 871.4 665.453 868.4C665.453 866.8 665.153 863.7 664.853 861.8H679.153ZM630.353 862.8C629.553 864.8 628.353 870 627.953 871.8C626.453 878.5 623.153 900.5 623.153 910.5C623.153 912.4 623.253 915 623.553 917C624.953 913.5 626.653 910.1 628.053 906.7L634.253 911.6C631.453 919.9 628.153 930 627.053 935.5C626.753 936.9 626.453 939.1 626.553 940.1C626.553 941.2 626.553 942.9 626.653 944.3L615.353 945.1C613.353 938.2 611.353 926.7 611.353 913.2C611.353 898.1 614.353 879.2 615.553 871.5C615.953 868.7 616.353 864.8 616.453 861.7L630.353 862.8ZM744.054 940H727.577L752.683 867.273H772.498L797.569 940H781.092L762.875 883.892H762.307L744.054 940ZM743.024 911.413H781.944V923.416H743.024V911.413ZM806.323 940V867.273H835.016C840.532 867.273 845.232 868.326 849.114 870.433C852.997 872.517 855.956 875.417 857.992 879.134C860.052 882.827 861.082 887.088 861.082 891.918C861.082 896.747 860.04 901.009 857.957 904.702C855.873 908.395 852.855 911.271 848.901 913.331C844.971 915.391 840.213 916.42 834.626 916.42H816.337V904.098H832.14C835.099 904.098 837.537 903.589 839.455 902.571C841.396 901.529 842.84 900.097 843.787 898.274C844.758 896.428 845.243 894.309 845.243 891.918C845.243 889.503 844.758 887.396 843.787 885.597C842.84 883.774 841.396 882.365 839.455 881.371C837.514 880.353 835.052 879.844 832.069 879.844H821.699V940H806.323ZM886.445 867.273V940H871.069V867.273H886.445ZM975.02 871.5C973.62 881.7 971.62 893.4 968.12 905.2C962.12 925.4 953.52 937.8 942.62 937.8C931.42 937.8 922.22 925.5 922.22 908.6C922.22 885.6 942.32 865.8 968.22 865.8C992.92 865.8 1008.62 883 1008.62 904.9C1008.62 925.9 995.72 940.8 970.52 944.7L962.92 932.9C966.82 932.4 969.62 931.9 972.32 931.3C985.02 928.2 995.02 919.1 995.02 904.4C995.02 888.7 985.22 877.5 967.92 877.5C946.72 877.5 935.12 894.8 935.12 907.4C935.12 917.5 939.12 922.4 942.92 922.4C947.22 922.4 951.02 916 955.22 902.5C958.12 893.1 960.32 881.6 961.32 871.1L975.02 871.5ZM1037.22 864.4C1039.92 864.6 1043.42 864.8 1045.52 864.8C1051.32 864.8 1061.92 864.4 1066.52 864C1069.02 863.8 1071.62 863.2 1073.42 862.5L1081.32 868.8C1080.02 870.3 1078.82 871.6 1078.02 872.9C1074.62 878.6 1069.22 891.5 1064.72 901.9C1060.72 911.1 1055.92 923 1051.82 929.3C1047.82 935.4 1043.12 938.1 1036.22 938.1C1027.52 938.1 1020.92 932.1 1020.92 921.9C1020.92 905.9 1036.22 893.6 1057.62 893.6C1080.92 893.6 1101.32 906 1111.82 913.2L1106.02 927.1C1093.72 916.2 1076.12 904.8 1055.52 904.8C1040.92 904.8 1032.52 912.7 1032.52 920C1032.52 923.3 1034.42 925 1036.82 925C1038.82 925 1040.12 924.1 1042.02 921.6C1045.32 916.7 1048.92 907.5 1052.52 899.6C1056.02 891.7 1060.12 881.9 1063.12 875.7C1059.12 875.8 1050.42 876.1 1045.92 876.4C1043.82 876.5 1040.32 876.9 1037.72 877.2L1037.22 864.4ZM1103.02 888C1101.62 916.4 1096.02 934.8 1072.12 947.2L1061.42 938.5C1086.12 927.9 1089.12 909.2 1090.02 897.5C1090.22 893.6 1090.32 889.6 1089.92 886.5L1103.02 888ZM103.916 998.9C102.816 1000.8 101.416 1003.5 100.616 1006C97.9156 1015 92.2156 1028.3 83.1156 1039.4C73.6156 1051 61.6156 1060.2 42.8156 1067.6L31.0156 1057.1C51.4156 1050.9 62.5156 1042.2 71.3156 1032.3C78.1156 1024.5 83.9156 1012.5 85.5156 1005.1H51.8156L56.4156 993.7C60.8156 993.7 81.8156 993.7 84.9156 993.7C88.0156 993.7 91.4156 993.3 93.6156 992.5L103.916 998.9ZM71.3156 983C68.9156 986.5 66.3156 991.1 65.2156 993.2C58.4156 1005.3 46.5156 1019.4 32.1156 1029.2L20.9156 1020.9C38.4156 1010.2 47.2156 997.3 52.1156 988.7C53.6156 986.3 55.7156 981.7 56.6156 978.2L71.3156 983ZM136.316 984.3C139.016 984.7 143.316 984.9 146.716 984.9C153.016 984.9 179.316 984.9 185.116 984.9C188.316 984.9 193.216 984.7 195.916 984.3V997.3C193.316 997.1 188.616 996.9 184.916 996.9C179.416 996.9 152.616 996.9 146.716 996.9C143.416 996.9 139.216 997 136.316 997.3V984.3ZM204.416 1013.4C203.716 1014.7 202.816 1016.5 202.516 1017.5C199.416 1027.2 195.116 1037 187.716 1045.2C177.616 1056.5 164.816 1063.2 152.016 1066.9L142.016 1055.6C157.116 1052.4 169.016 1045.9 176.716 1038C182.016 1032.6 185.216 1026.3 186.916 1020.8C181.916 1020.8 147.616 1020.8 138.716 1020.8C136.216 1020.8 131.216 1020.9 127.016 1021.2V1008.2C131.316 1008.6 135.516 1008.9 138.716 1008.9C145.516 1008.9 181.316 1008.9 188.116 1008.9C191.416 1008.9 194.116 1008.5 195.516 1007.8L204.416 1013.4ZM220.216 1022.2C238.116 1017.6 252.716 1011.1 263.916 1004.2C274.116 997.9 285.516 987.9 292.016 980L302.816 990.2C293.716 999.4 281.516 1008.8 269.716 1015.9C258.416 1022.6 242.216 1030.1 226.416 1034.8L220.216 1022.2ZM261.816 1010.7L276.016 1007.3V1052.4C276.016 1056.8 276.216 1063 276.916 1065.5H261.016C261.416 1063.1 261.816 1056.8 261.816 1052.4V1010.7ZM409.416 993.4C408.416 994.7 406.516 997.1 405.616 998.5C400.916 1006.3 391.416 1019 381.516 1026L371.116 1017.7C379.216 1012.8 387.016 1004 389.616 999.1C383.516 999.1 343.716 999.1 337.416 999.1C333.316 999.1 329.916 999.3 325.216 999.8V985.8C329.116 986.4 333.316 986.9 337.416 986.9C343.716 986.9 386.116 986.9 391.316 986.9C394.116 986.9 399.616 986.5 401.516 986L409.416 993.4ZM368.716 1006.8C368.716 1031.6 368.116 1052 340.916 1066.7L329.216 1057.2C332.516 1056.1 336.116 1054.4 339.816 1051.6C352.416 1042.8 354.816 1032.3 354.816 1015.9C354.816 1012.7 354.716 1010.1 354.216 1006.8H368.716ZM434.112 985C441.012 989.7 454.012 1000.1 459.912 1006.2L449.712 1016.6C444.512 1011 431.912 1000.1 424.612 995.1L434.112 985ZM421.512 1051.6C437.212 1049.4 450.112 1044.3 459.812 1038.6C476.912 1028.4 489.912 1013.2 496.312 999.7L504.012 1013.7C496.512 1027.3 483.212 1041.1 467.112 1050.8C456.912 1056.9 444.012 1062.4 430.012 1064.8L421.512 1051.6ZM541.312 1051.5C541.312 1043.8 541.312 1002.4 541.312 994C541.312 990.4 541.012 985.5 540.312 981.9H555.912C555.512 985.5 555.012 989.8 555.012 994C555.012 1005 555.112 1044.1 555.112 1051.5C555.112 1054.3 555.512 1061.3 556.012 1065.4H540.312C541.012 1061.5 541.312 1055.4 541.312 1051.5ZM552.112 1007.8C565.412 1011.5 587.012 1019.4 596.812 1024.2L591.212 1038.1C579.812 1032.2 563.012 1025.8 552.112 1022.2V1007.8ZM649.012 999.6C654.812 1000.2 660.512 1000.5 666.612 1000.5C678.812 1000.5 691.312 999.5 701.712 997.3V1009.7C691.212 1011.3 678.612 1012.1 666.612 1012.2C660.712 1012.2 655.012 1012 649.112 1011.6L649.012 999.6ZM687.112 982.8C686.812 984.7 686.612 987.1 686.512 989.2C686.312 992.5 686.112 999.4 686.112 1006.6C686.112 1025 687.712 1038 687.712 1047.5C687.712 1058 682.512 1065.6 668.112 1065.6C654.212 1065.6 645.612 1059.9 645.612 1049.4C645.612 1039.2 654.212 1032.2 667.912 1032.2C686.712 1032.2 698.812 1041.6 706.612 1048.8L699.812 1059.3C688.312 1048.6 678.212 1041.9 666.912 1041.9C661.212 1041.9 657.312 1044.2 657.312 1048C657.312 1052.1 661.312 1053.9 666.712 1053.9C672.812 1053.9 674.912 1050.7 674.912 1044.8C674.912 1037.9 673.612 1021.1 673.612 1006.7C673.612 999.1 673.512 992.4 673.412 989.4C673.412 987.8 673.112 984.7 672.812 982.8H687.112ZM638.312 983.8C637.512 985.8 636.312 991 635.912 992.8C634.412 999.5 631.112 1021.5 631.112 1031.5C631.112 1033.4 631.212 1036 631.512 1038C632.912 1034.5 634.612 1031.1 636.012 1027.7L642.212 1032.6C639.412 1040.9 636.112 1051 635.012 1056.5C634.712 1057.9 634.412 1060.1 634.512 1061.1C634.512 1062.2 634.512 1063.9 634.612 1065.3L623.312 1066.1C621.312 1059.2 619.312 1047.7 619.312 1034.2C619.312 1019.1 622.312 1000.2 623.512 992.5C623.912 989.7 624.312 985.8 624.412 982.7L638.312 983.8ZM744.812 1033.6H806.112V1044.7H744.812V1033.6ZM752.612 1008.4H790.812V1019.2H752.612V1008.4ZM770.312 1025.3H782.412V1057.3C782.412 1063.3 781.412 1066.4 777.112 1068.2C772.912 1069.9 767.012 1070 759.012 1070C758.512 1066.5 757.112 1061.8 755.612 1058.5C760.712 1058.7 766.612 1058.7 768.212 1058.7C769.812 1058.6 770.312 1058.3 770.312 1057V1025.3ZM787.812 1008.4H790.812L793.312 1007.7L800.812 1013.7C794.712 1020.6 786.412 1028.5 778.812 1033.6C777.312 1031.5 774.212 1028.2 772.412 1026.6C778.112 1022.5 784.912 1015.2 787.812 1010.6V1008.4ZM715.512 989.1H804.712V1000.6H715.512V989.1ZM746.812 976L759.512 979.1C752.112 1003.4 739.512 1027.8 718.012 1042.5C716.712 1039.2 713.912 1033.7 712.012 1030.7C730.212 1018.8 741.612 996.3 746.812 976ZM726.812 1017.8H739.012V1069.9H726.812V1017.8ZM815.512 990H904.712V1001.5H815.512V990ZM848.112 1022.4H900.512V1033.5H848.112V1022.4ZM844.212 1056.4H904.312V1067.5H844.212V1056.4ZM868.512 1005.8H880.612V1062.3H868.512V1005.8ZM847.012 976L859.512 979C852.112 1003.1 839.512 1027.4 818.112 1042C816.912 1038.6 814.112 1033.3 812.312 1030.4C830.412 1018.6 841.812 996.2 847.012 976ZM827.012 1017.9H839.112V1069.8H827.012V1017.9ZM947.112 981.7C946.512 985.9 946.012 991.1 945.812 995.1C945.312 1005.9 944.612 1028.2 944.612 1040.6C944.612 1050.7 950.612 1054 958.412 1054C974.912 1054 985.312 1044.5 992.612 1033.6L1001.71 1044.7C995.212 1054.3 981.012 1067.6 958.212 1067.6C941.812 1067.6 931.312 1060.4 931.312 1043.3C931.312 1029.9 932.212 1003.7 932.212 995.1C932.212 990.3 931.812 985.5 931.012 981.6L947.112 981.7ZM1069.71 980.2C1069.41 982.2 1069.11 984.7 1069.01 987.3C1068.81 992.4 1068.71 1006.6 1068.71 1015C1068.71 1026 1070.31 1044.1 1070.31 1052C1070.31 1060.6 1063.81 1067.2 1050.71 1067.2C1034.71 1067.2 1026.31 1061.1 1026.31 1050.5C1026.31 1040.4 1035.61 1033.3 1050.91 1033.3C1072.91 1033.3 1089.31 1044.1 1097.61 1051.1L1090.41 1062.3C1080.91 1053.3 1066.41 1043.6 1049.31 1043.6C1042.31 1043.6 1038.41 1046.3 1038.41 1049.8C1038.41 1053.6 1041.91 1055.9 1048.81 1055.9C1054.11 1055.9 1057.71 1054.4 1057.71 1048.6C1057.71 1042.6 1056.61 1024.7 1056.61 1015C1056.61 1005.4 1056.71 992.7 1056.71 987C1056.71 985.2 1056.51 982.1 1056.11 980.2H1069.71ZM1028.21 989.5C1035.31 990.7 1046.81 991.7 1052.91 991.7C1066.51 991.7 1079.61 991 1094.21 988.7L1094.11 1000.1C1083.91 1001.5 1068.01 1002.7 1053.01 1002.7C1046.61 1002.7 1035.01 1001.8 1028.41 1001L1028.21 989.5ZM1027.61 1011.1C1034.21 1012.3 1046.41 1013 1051.71 1013C1070.21 1013 1083.11 1011.8 1095.41 1010.2L1095.31 1022C1081.51 1023.6 1070.61 1024.2 1051.61 1024.2C1045.71 1024.2 1034.41 1023.7 1027.81 1022.9L1027.61 1011.1ZM1183.48 982.6C1183.18 984.2 1182.98 988.6 1182.88 991.2C1182.68 998 1182.68 1003.7 1182.48 1008.8C1182.28 1017.7 1181.98 1028.5 1180.98 1033.6C1179.88 1038.9 1177.28 1040.2 1172.18 1040.2C1168.68 1040.2 1160.58 1039.3 1157.18 1038.7L1157.38 1027.7C1160.48 1028.4 1164.68 1028.9 1166.68 1028.9C1168.58 1028.9 1169.48 1028.6 1169.78 1026.6C1170.28 1022.8 1170.48 1015.6 1170.68 1008.7C1170.68 1003.5 1170.68 997.7 1170.68 991.8C1170.68 989.2 1170.28 984.5 1169.98 982.6H1183.48ZM1144.08 985.6C1143.68 988.9 1143.48 991.7 1143.48 996C1143.48 1005.1 1143.08 1031.5 1143.28 1039.7C1143.58 1049.6 1144.38 1051.8 1159.38 1051.8C1169.18 1051.8 1181.88 1050.6 1189.28 1049.2L1188.78 1062.9C1182.08 1063.6 1169.88 1064.5 1160.28 1064.5C1134.48 1064.5 1131.28 1059 1130.88 1041.7C1130.68 1033.1 1130.78 1002.7 1130.78 996.7C1130.78 992.5 1130.48 989.1 1129.98 985.6H1144.08ZM1110.68 1008.2C1113.48 1008.2 1118.08 1008 1123.18 1007.4C1133.28 1006.5 1170.88 1002.8 1190.18 1001.6C1192.88 1001.4 1196.78 1001.1 1199.78 1000.9V1013.1C1197.98 1013 1192.68 1013.2 1190.08 1013.2C1174.48 1013.7 1135.58 1017.9 1123.98 1019.2C1120.88 1019.6 1114.68 1020.5 1111.98 1020.9L1110.68 1008.2ZM1264.68 986.8C1263.58 988.1 1262.58 989.8 1261.48 991.5C1256.48 998.6 1249.48 1011.4 1244.58 1020.3C1248.28 1018.1 1252.18 1017.2 1255.98 1017.2C1263.48 1017.2 1267.98 1021.9 1268.38 1030.3C1268.58 1034.7 1268.38 1042.7 1268.88 1046.9C1269.28 1050.8 1271.98 1052.4 1275.28 1052.4C1283.98 1052.4 1289.38 1041.1 1292.18 1028.7L1303.08 1037.5C1297.78 1054.7 1288.58 1066.1 1273.18 1066.1C1262.08 1066.1 1256.98 1059.4 1256.48 1052.2C1256.18 1046.8 1256.18 1038.7 1255.88 1034.6C1255.58 1031.1 1253.68 1029 1250.08 1029C1243.28 1029 1237.58 1036 1234.08 1044.1C1231.38 1049.9 1227.98 1061.1 1226.48 1066.4L1212.38 1061.6C1219.68 1041.6 1240.18 1000.8 1245.58 991.2C1246.78 988.6 1248.68 985.3 1250.48 981.1L1264.68 986.8Z" fill="black"/>
</svg>
