<svg width="2010" height="2314" viewBox="0 0 2010 2314" fill="none" xmlns="http://www.w3.org/2000/svg">
<path d="M1572.69 557.426C1574.71 499.311 1494.68 481.652 1472.06 535.219L1301.84 938.154C1256.16 1046.33 1362.71 1156.36 1472.29 1114.19L1690.13 1030.34C1787.84 992.732 1763.57 848.152 1658.92 844.523C1605.86 842.675 1564.34 798.161 1566.17 745.099L1572.69 557.426Z" fill="url(#paint0_linear_5_23)"/>
<path d="M383.686 253.291C208.485 319.418 262.212 580.137 449.292 571.603C535.165 567.686 609.586 630.538 620.09 715.858L632.992 820.56C668.858 1111.77 1072.58 1156.66 1171.54 880.431L1357.16 362.274C1434.93 145.185 1222.78 -63.4101 1007.03 18.018L383.686 253.291Z" fill="url(#paint1_linear_5_23)"/>
<path d="M1121.69 1242.76C1121.69 1304.82 1063.06 1358.13 1001 1358.13C938.94 1358.13 888.632 1334.22 888.632 1272.16C888.632 1210.1 938.94 1159.79 1001 1159.79C1063.06 1159.79 1121.69 1180.7 1121.69 1242.76Z" fill="url(#paint2_linear_5_23)"/>
<path d="M36.1834 1694.75V1631.36H334.834V1694.75H223.506V1995H147.512V1694.75H36.1834ZM467.336 2000.33C439.282 2000.33 415.134 1994.64 394.893 1983.28C374.769 1971.8 359.263 1955.58 348.373 1934.63C337.483 1913.56 332.037 1888.64 332.037 1859.88C332.037 1831.83 337.483 1807.2 348.373 1786.02C359.263 1764.83 374.592 1748.31 394.36 1736.48C414.246 1724.64 437.565 1718.72 464.317 1718.72C482.31 1718.72 499.059 1721.62 514.566 1727.42C530.191 1733.1 543.804 1741.69 555.404 1753.17C567.123 1764.65 576.237 1779.09 582.748 1796.49C589.258 1813.77 592.513 1834.02 592.513 1857.22V1877.99H362.222V1831.12H521.313C521.313 1820.22 518.946 1810.58 514.211 1802.17C509.476 1793.77 502.906 1787.2 494.502 1782.46C486.216 1777.61 476.569 1775.18 465.56 1775.18C454.078 1775.18 443.898 1777.85 435.02 1783.17C426.261 1788.38 419.395 1795.43 414.424 1804.3C409.452 1813.06 406.907 1822.83 406.789 1833.6V1878.17C406.789 1891.66 409.275 1903.32 414.246 1913.15C419.336 1922.97 426.498 1930.55 435.731 1935.87C444.964 1941.2 455.913 1943.86 468.579 1943.86C476.983 1943.86 484.677 1942.68 491.661 1940.31C498.645 1937.95 504.623 1934.39 509.594 1929.66C514.566 1924.92 518.354 1919.12 520.958 1912.26L590.915 1916.88C587.364 1933.68 580.084 1948.36 569.076 1960.91C558.186 1973.34 544.099 1983.04 526.817 1990.03C509.653 1996.89 489.826 2000.33 467.336 2000.33ZM719.644 2000.15C702.243 2000.15 686.737 1997.13 673.124 1991.09C659.511 1984.94 648.74 1975.88 640.809 1963.93C632.996 1951.85 629.09 1936.82 629.09 1918.83C629.09 1903.68 631.872 1890.95 637.435 1880.65C642.999 1870.36 650.574 1862.07 660.162 1855.8C669.751 1849.52 680.641 1844.79 692.833 1841.59C705.144 1838.39 718.046 1836.15 731.54 1834.84C747.402 1833.19 760.186 1831.65 769.893 1830.23C779.599 1828.69 786.642 1826.44 791.022 1823.48C795.402 1820.52 797.591 1816.14 797.591 1810.34V1809.28C797.591 1798.03 794.04 1789.33 786.938 1783.17C779.954 1777.02 770.011 1773.94 757.108 1773.94C743.496 1773.94 732.665 1776.96 724.616 1783C716.566 1788.92 711.24 1796.37 708.635 1805.37L638.678 1799.69C642.229 1783.12 649.213 1768.79 659.63 1756.72C670.046 1744.53 683.482 1735.18 699.935 1728.66C716.507 1722.04 735.683 1718.72 757.464 1718.72C772.615 1718.72 787.116 1720.5 800.965 1724.05C814.933 1727.6 827.303 1733.1 838.074 1740.56C848.965 1748.02 857.546 1757.61 863.82 1769.33C870.094 1780.93 873.231 1794.83 873.231 1811.05V1995H801.498V1957.18H799.367C794.987 1965.7 789.128 1973.22 781.789 1979.73C774.45 1986.12 765.631 1991.15 755.333 1994.82C745.035 1998.37 733.138 2000.15 719.644 2000.15ZM741.306 1947.95C752.433 1947.95 762.258 1945.76 770.78 1941.38C779.303 1936.88 785.991 1930.84 790.844 1923.27C795.698 1915.69 798.124 1907.11 798.124 1897.52V1868.58C795.757 1870.12 792.501 1871.54 788.358 1872.84C784.334 1874.02 779.777 1875.15 774.687 1876.21C769.597 1877.16 764.507 1878.05 759.417 1878.88C754.327 1879.59 749.71 1880.24 745.567 1880.83C736.689 1882.13 728.936 1884.2 722.307 1887.05C715.679 1889.89 710.529 1893.73 706.86 1898.59C703.19 1903.32 701.356 1909.24 701.356 1916.34C701.356 1926.64 705.084 1934.51 712.542 1939.96C720.117 1945.28 729.706 1947.95 741.306 1947.95ZM1007.55 1631.36V1995H931.913V1631.36H1007.55ZM1247.96 1995H1165.58L1291.11 1631.36H1390.19L1515.54 1995H1433.16L1342.07 1714.46H1339.23L1247.96 1995ZM1242.82 1852.07H1437.42V1912.08H1242.82V1852.07ZM1559.31 1995V1631.36H1702.78C1730.36 1631.36 1753.85 1636.63 1773.27 1647.17C1792.68 1657.58 1807.48 1672.08 1817.66 1690.67C1827.95 1709.13 1833.1 1730.44 1833.1 1754.59C1833.1 1778.74 1827.89 1800.04 1817.48 1818.51C1807.06 1836.97 1791.97 1851.36 1772.2 1861.65C1752.55 1871.95 1728.76 1877.1 1700.82 1877.1H1609.38V1815.49H1688.39C1703.19 1815.49 1715.38 1812.95 1724.97 1807.86C1734.68 1802.65 1741.9 1795.49 1746.63 1786.37C1751.49 1777.14 1753.91 1766.54 1753.91 1754.59C1753.91 1742.51 1751.49 1731.98 1746.63 1722.98C1741.9 1713.87 1734.68 1706.83 1724.97 1701.85C1715.26 1696.76 1702.95 1694.22 1688.04 1694.22H1636.19V1995H1559.31ZM1959.92 1631.36V1995H1883.04V1631.36H1959.92Z" fill="#E7E7E7"/>
<path d="M253.056 2258H236.578L261.685 2185.27H281.5L306.571 2258H290.094L271.877 2201.89H271.309L253.056 2258ZM252.026 2229.41H290.946V2241.42H252.026V2229.41ZM315.325 2258V2185.27H344.018C349.534 2185.27 354.234 2186.33 358.116 2188.43C361.999 2190.52 364.958 2193.42 366.994 2197.13C369.054 2200.83 370.083 2205.09 370.083 2209.92C370.083 2214.75 369.042 2219.01 366.958 2222.7C364.875 2226.39 361.857 2229.27 357.903 2231.33C353.973 2233.39 349.215 2234.42 343.627 2234.42H325.339V2222.1H341.142C344.101 2222.1 346.539 2221.59 348.457 2220.57C350.398 2219.53 351.842 2218.1 352.789 2216.27C353.76 2214.43 354.245 2212.31 354.245 2209.92C354.245 2207.5 353.76 2205.4 352.789 2203.6C351.842 2201.77 350.398 2200.37 348.457 2199.37C346.516 2198.35 344.054 2197.84 341.071 2197.84H330.701V2258H315.325ZM395.447 2185.27V2258H380.071V2185.27H395.447ZM431.822 2189.5C435.722 2189.4 439.722 2189.2 441.622 2189C449.922 2188.2 466.422 2186.8 484.722 2185.2C495.122 2184.4 506.022 2183.7 513.122 2183.4L513.222 2196.3C507.822 2196.3 499.222 2196.4 493.822 2197.6C481.822 2200.8 472.722 2213.8 472.722 2225.7C472.722 2242.1 488.122 2248.1 505.022 2248.9L500.322 2262.6C479.422 2261.3 459.622 2250 459.622 2228.3C459.622 2214 467.722 2202.6 474.422 2197.5C465.122 2198.5 444.622 2200.7 433.122 2203.2L431.822 2189.5ZM498.922 2206.1C501.322 2209.6 504.922 2215.7 506.822 2219.7L499.322 2223C496.722 2217.6 494.622 2213.6 491.522 2209.2L498.922 2206.1ZM510.022 2201.5C512.622 2205 516.422 2210.9 518.522 2214.8L511.022 2218.4C508.322 2213 506.022 2209.2 502.822 2204.8L510.022 2201.5ZM538.722 2188.2C541.322 2188.6 545.522 2188.9 548.222 2188.9H602.722C605.722 2188.9 609.222 2188.6 612.022 2188.2V2202C609.122 2201.7 605.622 2201.5 602.722 2201.5H548.222C545.522 2201.5 541.322 2201.7 538.722 2202V2188.2ZM567.622 2249.8V2195.9H581.522V2249.8H567.622ZM532.322 2241.6C535.522 2242.1 539.122 2242.4 542.122 2242.4H608.122C611.622 2242.4 614.822 2241.9 617.422 2241.6V2256C614.622 2255.7 610.422 2255.6 608.122 2255.6H542.122C539.222 2255.6 535.622 2255.7 532.322 2256V2241.6ZM644.422 2254.1C645.522 2251.6 645.722 2249.9 645.722 2247.6C645.722 2240 645.722 2204.5 645.722 2193.3C645.722 2189.6 645.122 2184.8 644.522 2182H660.222C659.722 2185.8 659.322 2189.5 659.322 2193.3C659.322 2204.4 659.322 2237.7 659.322 2245.3C675.622 2240.7 697.922 2227.9 710.722 2212.2L717.822 2223.6C704.122 2239.9 683.322 2251.9 659.722 2259.6C658.422 2260 656.222 2260.7 653.822 2262.3L644.422 2254.1ZM801.722 2178C804.222 2181.7 807.822 2188 809.722 2191.7L801.722 2195.1C799.622 2191 796.522 2185.1 793.822 2181.2L801.722 2178ZM813.622 2173.5C816.222 2177.2 819.922 2183.6 821.622 2187.1L813.722 2190.5C811.622 2186.3 808.422 2180.5 805.722 2176.7L813.622 2173.5ZM776.122 2178.9C775.822 2181.2 775.522 2185.4 775.422 2187.8C774.322 2227.6 764.922 2247.8 742.822 2263.6L731.122 2254.2C735.322 2251.9 740.322 2248.5 744.322 2244.4C757.422 2231.4 762.022 2214.4 762.122 2188.1C762.122 2185.8 761.722 2181.3 761.322 2178.9H776.122ZM810.022 2200.3C809.722 2201.9 809.422 2204.5 809.422 2205.6C809.022 2216.4 807.722 2244.3 803.422 2254.5C801.322 2259.6 797.422 2262.2 790.622 2262.2C784.822 2262.2 778.922 2261.8 774.022 2261.4L772.422 2248C777.422 2248.9 782.522 2249.4 786.522 2249.4C789.722 2249.4 791.122 2248.3 792.122 2245.9C795.022 2239.6 796.422 2219.6 796.422 2208.8H747.622C744.222 2208.8 738.622 2208.8 734.422 2209.2V2196.1C738.622 2196.5 743.722 2196.8 747.522 2196.8H793.822C796.422 2196.8 799.022 2196.5 801.422 2196.1L810.022 2200.3ZM849.022 2182C855.922 2186.7 868.922 2197.1 874.822 2203.2L864.622 2213.6C859.422 2208 846.822 2197.1 839.522 2192.1L849.022 2182ZM836.422 2248.6C852.122 2246.4 865.022 2241.3 874.722 2235.6C891.822 2225.4 904.822 2210.2 911.222 2196.7L918.922 2210.7C911.422 2224.3 898.122 2238.1 882.022 2247.8C871.822 2253.9 858.922 2259.4 844.922 2261.8L836.422 2248.6ZM956.222 2248.5C956.222 2240.8 956.222 2199.4 956.222 2191C956.222 2187.4 955.922 2182.5 955.222 2178.9H970.822C970.422 2182.5 969.922 2186.8 969.922 2191C969.922 2202 970.022 2241.1 970.022 2248.5C970.022 2251.3 970.422 2258.3 970.922 2262.4H955.222C955.922 2258.5 956.222 2252.4 956.222 2248.5ZM967.022 2204.8C980.322 2208.5 1001.92 2216.4 1011.72 2221.2L1006.12 2235.1C994.722 2229.2 977.922 2222.8 967.022 2219.2V2204.8ZM1033.12 2192.5C1037.42 2193 1042.82 2193.2 1046.42 2193.2C1058.82 2193.2 1072.32 2191.1 1082.02 2188L1082.32 2199.6C1073.72 2202 1059.32 2204.6 1046.52 2204.5C1042.52 2204.5 1038.32 2204.4 1034.02 2204.2L1033.12 2192.5ZM1072.02 2177.5C1070.72 2182.8 1068.32 2192.6 1065.62 2201.1C1061.02 2215.5 1052.02 2234.1 1043.52 2245.9L1031.42 2239.7C1040.42 2228.7 1049.42 2211.2 1053.32 2200.4C1055.72 2193.2 1057.92 2183.9 1058.22 2176.2L1072.02 2177.5ZM1095.52 2208.7C1095.22 2212.9 1095.32 2217.1 1095.42 2221.5C1095.62 2227.4 1096.52 2242.3 1096.52 2247.9C1096.52 2257.2 1091.52 2264.5 1077.22 2264.5C1064.82 2264.5 1055.02 2258.9 1055.02 2247.9C1055.02 2238.2 1063.22 2230.6 1077.12 2230.6C1094.62 2230.6 1108.42 2239.4 1116.72 2246.9L1110.12 2257.7C1102.92 2251 1091.52 2240.7 1076.42 2240.7C1070.62 2240.7 1066.82 2243.2 1066.82 2246.7C1066.82 2250.4 1070.02 2253 1075.52 2253C1082.32 2253 1084.52 2249.2 1084.52 2243.6C1084.52 2237.6 1083.42 2219.2 1082.92 2208.7H1095.52ZM1112.72 2214C1106.92 2209.3 1095.52 2202.8 1088.62 2199.7L1095.12 2189.9C1102.32 2193 1114.62 2199.7 1119.82 2203.4L1112.72 2214ZM1193.84 2206.19C1193.56 2203.32 1192.34 2201.1 1190.18 2199.51C1188.03 2197.93 1185.1 2197.13 1181.41 2197.13C1178.9 2197.13 1176.78 2197.49 1175.06 2198.2C1173.33 2198.89 1172 2199.84 1171.08 2201.08C1170.18 2202.31 1169.73 2203.7 1169.73 2205.27C1169.68 2206.57 1169.95 2207.7 1170.55 2208.67C1171.16 2209.65 1172 2210.49 1173.07 2211.2C1174.13 2211.88 1175.36 2212.49 1176.76 2213.01C1178.16 2213.5 1179.65 2213.93 1181.23 2214.29L1187.77 2215.85C1190.94 2216.56 1193.85 2217.51 1196.5 2218.69C1199.16 2219.87 1201.45 2221.33 1203.39 2223.06C1205.33 2224.79 1206.84 2226.82 1207.9 2229.16C1208.99 2231.51 1209.55 2234.2 1209.57 2237.23C1209.55 2241.68 1208.41 2245.54 1206.16 2248.8C1203.94 2252.05 1200.72 2254.57 1196.5 2256.37C1192.31 2258.14 1187.26 2259.03 1181.34 2259.03C1175.47 2259.03 1170.36 2258.13 1166 2256.33C1161.67 2254.53 1158.28 2251.87 1155.84 2248.34C1153.43 2244.79 1152.16 2240.4 1152.04 2235.17H1166.92C1167.09 2237.6 1167.79 2239.64 1169.02 2241.27C1170.27 2242.88 1171.94 2244.1 1174.03 2244.93C1176.13 2245.74 1178.51 2246.14 1181.16 2246.14C1183.77 2246.14 1186.03 2245.76 1187.95 2245C1189.89 2244.25 1191.39 2243.19 1192.46 2241.84C1193.52 2240.49 1194.05 2238.94 1194.05 2237.19C1194.05 2235.56 1193.57 2234.18 1192.6 2233.07C1191.65 2231.96 1190.25 2231.01 1188.41 2230.23C1186.58 2229.45 1184.35 2228.74 1181.7 2228.1L1173.78 2226.11C1167.65 2224.62 1162.8 2222.29 1159.25 2219.12C1155.7 2215.94 1153.94 2211.67 1153.96 2206.3C1153.94 2201.89 1155.11 2198.04 1157.48 2194.75C1159.87 2191.46 1163.15 2188.89 1167.31 2187.05C1171.48 2185.2 1176.22 2184.28 1181.52 2184.28C1186.92 2184.28 1191.63 2185.2 1195.65 2187.05C1199.7 2188.89 1202.85 2191.46 1205.1 2194.75C1207.35 2198.04 1208.51 2201.86 1208.58 2206.19H1193.84ZM1280.75 2185.27V2258H1267.46L1235.82 2212.23H1235.29V2258H1219.91V2185.27H1233.41L1264.8 2231.01H1265.44V2185.27H1280.75ZM1332.9 2206.19C1332.62 2203.32 1331.4 2201.1 1329.25 2199.51C1327.09 2197.93 1324.17 2197.13 1320.47 2197.13C1317.96 2197.13 1315.85 2197.49 1314.12 2198.2C1312.39 2198.89 1311.06 2199.84 1310.14 2201.08C1309.24 2202.31 1308.79 2203.7 1308.79 2205.27C1308.74 2206.57 1309.02 2207.7 1309.61 2208.67C1310.22 2209.65 1311.06 2210.49 1312.13 2211.2C1313.19 2211.88 1314.43 2212.49 1315.82 2213.01C1317.22 2213.5 1318.71 2213.93 1320.3 2214.29L1326.83 2215.85C1330 2216.56 1332.91 2217.51 1335.57 2218.69C1338.22 2219.87 1340.51 2221.33 1342.46 2223.06C1344.4 2224.79 1345.9 2226.82 1346.97 2229.16C1348.05 2231.51 1348.61 2234.2 1348.63 2237.23C1348.61 2241.68 1347.47 2245.54 1345.23 2248.8C1343 2252.05 1339.78 2254.57 1335.57 2256.37C1331.38 2258.14 1326.32 2259.03 1320.4 2259.03C1314.53 2259.03 1309.42 2258.13 1305.06 2256.33C1300.73 2254.53 1297.34 2251.87 1294.91 2248.34C1292.49 2244.79 1291.22 2240.4 1291.11 2235.17H1305.99C1306.15 2237.6 1306.85 2239.64 1308.08 2241.27C1309.34 2242.88 1311 2244.1 1313.09 2244.93C1315.19 2245.74 1317.57 2246.14 1320.23 2246.14C1322.83 2246.14 1325.09 2245.76 1327.01 2245C1328.95 2244.25 1330.45 2243.19 1331.52 2241.84C1332.58 2240.49 1333.12 2238.94 1333.12 2237.19C1333.12 2235.56 1332.63 2234.18 1331.66 2233.07C1330.71 2231.96 1329.32 2231.01 1327.47 2230.23C1325.65 2229.45 1323.41 2228.74 1320.76 2228.1L1312.84 2226.11C1306.71 2224.62 1301.87 2222.29 1298.31 2219.12C1294.76 2215.94 1293 2211.67 1293.02 2206.3C1293 2201.89 1294.17 2198.04 1296.54 2194.75C1298.93 2191.46 1302.21 2188.89 1306.38 2187.05C1310.54 2185.2 1315.28 2184.28 1320.58 2184.28C1325.98 2184.28 1330.69 2185.2 1334.71 2187.05C1338.76 2188.89 1341.91 2191.46 1344.16 2194.75C1346.41 2198.04 1347.57 2201.86 1347.64 2206.19H1332.9ZM1397.9 2173.5L1409.2 2176.9C1403.3 2193.9 1393.8 2212 1383.6 2223.5C1382.5 2220.7 1379.2 2214 1377.1 2211.1C1385.5 2201.9 1393.3 2187.7 1397.9 2173.5ZM1389.8 2201.1L1401.1 2189.7L1401.2 2189.8V2266.9H1389.8V2201.1ZM1432.4 2173.6H1444.1V2266.3H1432.4V2173.6ZM1407 2190.9H1471.8V2202.3H1407V2190.9ZM1419.2 2239.4H1457.5V2250.1H1419.2V2239.4ZM1448.3 2197.3C1453.6 2214.3 1463.7 2232.4 1474.5 2242.6C1471.7 2244.7 1467.7 2248.8 1465.6 2252C1454.6 2240 1445.3 2219.5 1439.8 2199.8L1448.3 2197.3ZM1428.7 2196.4L1437.3 2198.8C1431.6 2219.5 1422.1 2240.1 1410.2 2252.3C1408.3 2249.4 1404.3 2245.2 1401.7 2243.2C1413.1 2233 1423.4 2214.2 1428.7 2196.4ZM1534 2221V2230.3H1559.5V2221H1534ZM1524.2 2212.4H1569.8V2238.9H1524.2V2212.4ZM1546 2183.6C1541.4 2191.6 1532.7 2201.5 1523.3 2207.3C1522.1 2204.4 1519.7 2200.2 1517.8 2197.7C1527.1 2192.4 1536.2 2181.7 1540.4 2173.1H1550.8C1556.7 2182.4 1565.5 2191.6 1574.4 2195.8C1572.3 2198.6 1569.8 2202.9 1568.3 2206.2C1559.8 2201 1550.9 2191.6 1546 2183.6ZM1541.3 2201.9H1551.9V2221.4C1551.9 2237.5 1548.9 2255.7 1525.1 2267.2C1523.6 2264.7 1520.2 2260.8 1517.8 2258.8C1538.8 2249.2 1541.3 2234.3 1541.3 2221.3V2201.9ZM1552.9 2233.7C1556.4 2244.2 1563.7 2253.2 1573.9 2257.5C1571.4 2259.6 1567.9 2264 1566.3 2266.9C1555.1 2261 1547.9 2249.6 1543.8 2236L1552.9 2233.7ZM1531.1 2197.8H1561.9V2207H1531.1V2197.8ZM1489.2 2192H1518.5V2201H1489.2V2192ZM1489.2 2207.1H1518.5V2216.2H1489.2V2207.1ZM1483.6 2222.3H1517.8V2231.6H1483.6V2222.3ZM1500.2 2182.4H1509.7V2227.5H1500.2V2182.4ZM1503.6 2236.2L1508.2 2234.6C1510.3 2238.6 1512.2 2243.9 1513 2247.3L1508 2249.2C1507.4 2245.6 1505.5 2240.2 1503.6 2236.2ZM1497.1 2237.5L1502.2 2236.6C1503.8 2241.8 1505.2 2248.4 1505.5 2252.7L1500.1 2253.9C1499.9 2249.5 1498.6 2242.7 1497.1 2237.5ZM1490.2 2238.1L1495.3 2237.5C1496.3 2243.4 1496.7 2251.1 1496.4 2256L1491 2256.7C1491.3 2251.6 1491 2244.1 1490.2 2238.1ZM1482.8 2236L1489.4 2237.2C1488.9 2246.5 1487.8 2255.8 1483.7 2261.4L1477.7 2258.1C1481.2 2253 1482.4 2244.5 1482.8 2236ZM1483.6 2176.8H1520.5V2186.5H1493.4V2228.7H1483.6V2176.8ZM1512.6 2222.3H1522.5C1522.5 2222.3 1522.5 2225 1522.4 2226.3C1521.4 2250.6 1520.4 2260 1518 2263.1C1516.3 2265.3 1514.5 2266.2 1512.1 2266.5C1510 2266.9 1506.7 2267 1503.2 2266.9C1503 2264 1502.1 2260.1 1500.7 2257.6C1503.4 2257.9 1505.6 2257.9 1506.8 2257.9C1508 2257.9 1508.7 2257.6 1509.5 2256.7C1510.9 2254.7 1511.8 2246.7 1512.6 2224V2222.3ZM1624.4 2177.8C1623.6 2181.5 1622.3 2187.4 1619.5 2194.6C1617.4 2199.5 1614.5 2205.2 1611.7 2209.2C1614.4 2208 1619.7 2207.3 1623.1 2207.3C1631.4 2207.3 1637.7 2212.2 1637.7 2221.5C1637.7 2226.9 1638 2237.8 1638.1 2244.1H1626.1C1626.5 2239.4 1626.7 2230.9 1626.6 2225.5C1626.6 2219.1 1622.6 2217 1618.4 2217C1612.9 2217 1606.6 2220.3 1602.8 2223.9C1599.8 2226.9 1597 2230.5 1593.6 2234.9L1582.9 2226.9C1595.7 2215.1 1603.4 2204.3 1607.6 2193.3C1609.6 2187.9 1610.9 2181.8 1611.2 2176.7L1624.4 2177.8ZM1586.7 2187.1C1591.8 2187.8 1599.2 2188.2 1604.3 2188.2C1617.5 2188.2 1635.6 2187.5 1650.1 2184.9L1650 2196.5C1635.9 2198.5 1615.8 2199.4 1603.6 2199.4C1599.5 2199.4 1592.2 2199.2 1586.7 2198.7V2187.1ZM1665.9 2215.5C1662.8 2216.4 1657.4 2218.4 1654 2219.7C1647.5 2222.2 1638.5 2225.8 1629.1 2230.6C1620 2235.3 1615.1 2239.6 1615.1 2245.1C1615.1 2250.6 1619.9 2252.1 1629.6 2252.1C1638.1 2252.1 1649.3 2251 1658.1 2249.2L1657.7 2262.1C1651 2263 1638.8 2263.9 1629.3 2263.9C1613.7 2263.9 1602 2260 1602 2247.1C1602 2233.2 1616.3 2225 1628.3 2219C1637.5 2214.2 1643.8 2211.8 1649.8 2209C1653.7 2207.3 1657.2 2205.7 1661 2203.8L1665.9 2215.5ZM1695.1 2233.3C1704.1 2233.3 1711.3 2240.5 1711.3 2249.4C1711.3 2258.4 1704.1 2265.6 1695.1 2265.6C1686.2 2265.6 1678.9 2258.4 1678.9 2249.4C1678.9 2240.5 1686.2 2233.3 1695.1 2233.3ZM1695.1 2258.4C1700.1 2258.4 1704.1 2254.4 1704.1 2249.4C1704.1 2244.5 1700.1 2240.5 1695.1 2240.5C1690.2 2240.5 1686.1 2244.5 1686.1 2249.4C1686.1 2254.4 1690.2 2258.4 1695.1 2258.4Z" fill="#E7E7E7"/>
<defs>
<linearGradient id="paint0_linear_5_23" x1="1421" y1="738.673" x2="1401.29" y2="1306.19" gradientUnits="userSpaceOnUse">
<stop stop-color="#00D2D2"/>
<stop offset="1" stop-color="#003939"/>
</linearGradient>
<linearGradient id="paint1_linear_5_23" x1="730.485" y1="-151.161" x2="730.485" y2="1147.31" gradientUnits="userSpaceOnUse">
<stop stop-color="#00D2D2"/>
<stop offset="1" stop-color="#003939"/>
</linearGradient>
<linearGradient id="paint2_linear_5_23" x1="913.603" y1="1158.36" x2="913.603" y2="1383.1" gradientUnits="userSpaceOnUse">
<stop stop-color="#019A9A"/>
<stop offset="1" stop-color="#014E4E"/>
</linearGradient>
</defs>
</svg>
