<svg width="732" height="164" viewBox="0 0 732 164" fill="none" xmlns="http://www.w3.org/2000/svg">
<path d="M269.984 55.9403V40.7273H341.66V55.9403H314.941V128H296.703V55.9403H269.984ZM373.461 129.278C366.728 129.278 360.932 127.915 356.074 125.188C351.245 122.432 347.523 118.54 344.909 113.511C342.296 108.455 340.989 102.474 340.989 95.571C340.989 88.8381 342.296 82.929 344.909 77.8438C347.523 72.7585 351.202 68.7955 355.946 65.9545C360.719 63.1136 366.316 61.6932 372.736 61.6932C377.054 61.6932 381.074 62.3892 384.796 63.7812C388.546 65.1449 391.813 67.2045 394.597 69.9602C397.409 72.7159 399.597 76.1818 401.159 80.358C402.722 84.5057 403.503 89.3636 403.503 94.9318V99.9176H348.233V88.6676H386.415C386.415 86.054 385.847 83.7386 384.711 81.7216C383.574 79.7045 381.998 78.1278 379.98 76.9915C377.992 75.8267 375.676 75.2443 373.034 75.2443C370.279 75.2443 367.836 75.8835 365.705 77.1619C363.603 78.4119 361.955 80.1023 360.762 82.233C359.569 84.3352 358.958 86.679 358.929 89.2642V99.9602C358.929 103.199 359.526 105.997 360.719 108.355C361.941 110.713 363.659 112.531 365.875 113.81C368.091 115.088 370.719 115.727 373.759 115.727C375.776 115.727 377.623 115.443 379.299 114.875C380.975 114.307 382.409 113.455 383.603 112.318C384.796 111.182 385.705 109.79 386.33 108.142L403.12 109.25C402.267 113.284 400.52 116.807 397.878 119.818C395.265 122.801 391.884 125.131 387.736 126.807C383.617 128.455 378.858 129.278 373.461 129.278ZM434.015 129.236C429.838 129.236 426.117 128.511 422.85 127.062C419.583 125.585 416.998 123.412 415.094 120.543C413.219 117.645 412.282 114.037 412.282 109.719C412.282 106.082 412.949 103.028 414.284 100.557C415.62 98.0852 417.438 96.0966 419.739 94.5909C422.04 93.0852 424.654 91.9489 427.58 91.1818C430.534 90.4148 433.631 89.875 436.87 89.5625C440.676 89.1648 443.745 88.7955 446.074 88.4545C448.404 88.0852 450.094 87.5455 451.145 86.8352C452.196 86.125 452.722 85.0739 452.722 83.6818V83.4261C452.722 80.7273 451.87 78.6392 450.165 77.1619C448.489 75.6847 446.103 74.946 443.006 74.946C439.739 74.946 437.14 75.6705 435.208 77.1193C433.276 78.5398 431.998 80.3295 431.373 82.4886L414.583 81.125C415.435 77.1477 417.111 73.7102 419.611 70.8125C422.111 67.8864 425.336 65.642 429.284 64.0795C433.262 62.4886 437.864 61.6932 443.091 61.6932C446.728 61.6932 450.208 62.1193 453.532 62.9716C456.884 63.8239 459.853 65.1449 462.438 66.9347C465.051 68.7244 467.111 71.0256 468.617 73.8381C470.123 76.6222 470.875 79.9602 470.875 83.8523V128H453.659V118.923H453.148C452.097 120.969 450.691 122.773 448.929 124.335C447.168 125.869 445.051 127.077 442.58 127.957C440.108 128.81 437.253 129.236 434.015 129.236ZM439.213 116.707C441.884 116.707 444.242 116.182 446.287 115.131C448.333 114.051 449.938 112.602 451.103 110.784C452.267 108.966 452.85 106.906 452.85 104.605V97.6591C452.282 98.0284 451.5 98.3693 450.506 98.6818C449.54 98.9659 448.446 99.2358 447.225 99.4915C446.003 99.7187 444.782 99.9318 443.56 100.131C442.338 100.301 441.23 100.457 440.236 100.599C438.105 100.912 436.245 101.409 434.654 102.091C433.063 102.773 431.827 103.696 430.946 104.861C430.066 105.997 429.625 107.418 429.625 109.122C429.625 111.594 430.52 113.483 432.31 114.79C434.128 116.068 436.429 116.707 439.213 116.707ZM503.113 40.7273V128H484.959V40.7273H503.113ZM560.811 128H541.039L571.167 40.7273H594.945L625.03 128H605.257L583.397 60.6705H582.715L560.811 128ZM559.576 93.696H606.28V108.099H559.576V93.696ZM635.534 128V40.7273H669.966C676.586 40.7273 682.225 41.9915 686.884 44.5199C691.543 47.0199 695.094 50.5 697.537 54.9602C700.009 59.392 701.245 64.5057 701.245 70.3011C701.245 76.0966 699.995 81.2102 697.495 85.642C694.995 90.0739 691.373 93.5256 686.628 95.9972C681.912 98.4687 676.202 99.7045 669.498 99.7045H647.551V84.9176H666.515C670.066 84.9176 672.992 84.3068 675.293 83.0852C677.623 81.8352 679.355 80.1165 680.492 77.929C681.657 75.7131 682.239 73.1705 682.239 70.3011C682.239 67.4034 681.657 64.875 680.492 62.7159C679.355 60.5284 677.623 58.8381 675.293 57.6449C672.963 56.4233 670.009 55.8125 666.429 55.8125H653.986V128H635.534ZM731.681 40.7273V128H713.23V40.7273H731.681Z" fill="#222222"/>
<path d="M155.666 66.97C155.908 59.988 146.294 57.8664 143.576 64.302L123.126 112.711C117.637 125.707 130.438 138.927 143.604 133.86L169.775 123.786C181.514 119.268 178.598 101.898 166.026 101.462C159.651 101.24 154.662 95.8923 154.883 89.5173L155.666 66.97Z" fill="url(#paint0_linear_1_47)"/>
<path d="M12.8174 30.4307C-8.23155 38.3753 -1.77665 69.6985 20.6994 68.6733C31.0164 68.2027 39.9574 75.7538 41.2194 86.0043L42.7694 98.5833C47.0784 133.57 95.5824 138.963 107.471 105.776L129.772 43.5241C139.115 17.4427 113.627 -7.61819 87.7074 2.16471L12.8174 30.4307Z" fill="url(#paint1_linear_1_47)"/>
<path d="M101.482 149.307C101.482 156.763 94.4384 163.167 86.9824 163.167C79.5264 163.167 73.4824 160.295 73.4824 152.839C73.4824 145.383 79.5264 139.339 86.9824 139.339C94.4384 139.339 101.482 141.851 101.482 149.307Z" fill="url(#paint2_linear_1_47)"/>
<defs>
<linearGradient id="paint0_linear_1_47" x1="137.441" y1="88.7453" x2="135.073" y2="156.927" gradientUnits="userSpaceOnUse">
<stop stop-color="#00D2D2"/>
<stop offset="1" stop-color="#003939"/>
</linearGradient>
<linearGradient id="paint1_linear_1_47" x1="54.4824" y1="-18.1607" x2="54.4824" y2="137.839" gradientUnits="userSpaceOnUse">
<stop stop-color="#00D2D2"/>
<stop offset="1" stop-color="#003939"/>
</linearGradient>
<linearGradient id="paint2_linear_1_47" x1="76.4824" y1="139.167" x2="76.4824" y2="166.167" gradientUnits="userSpaceOnUse">
<stop stop-color="#019A9A"/>
<stop offset="1" stop-color="#014E4E"/>
</linearGradient>
</defs>
</svg>
