<svg width="1100" height="479" viewBox="0 0 1100 479" fill="none" xmlns="http://www.w3.org/2000/svg">
<rect width="1100" height="478.059" fill="#1D1D1D"/>
<path d="M453.984 212.94V197.727H525.66V212.94H498.941V285H480.703V212.94H453.984ZM557.461 286.278C550.728 286.278 544.932 284.915 540.074 282.188C535.245 279.432 531.523 275.54 528.909 270.511C526.296 265.455 524.989 259.474 524.989 252.571C524.989 245.838 526.296 239.929 528.909 234.844C531.523 229.758 535.202 225.795 539.946 222.954C544.719 220.114 550.316 218.693 556.736 218.693C561.054 218.693 565.074 219.389 568.796 220.781C572.546 222.145 575.813 224.204 578.597 226.96C581.409 229.716 583.597 233.182 585.159 237.358C586.722 241.506 587.503 246.364 587.503 251.932V256.918H532.233V245.668H570.415C570.415 243.054 569.847 240.739 568.711 238.722C567.574 236.704 565.998 235.128 563.98 233.991C561.992 232.827 559.676 232.244 557.034 232.244C554.279 232.244 551.836 232.883 549.705 234.162C547.603 235.412 545.955 237.102 544.762 239.233C543.569 241.335 542.958 243.679 542.929 246.264V256.96C542.929 260.199 543.526 262.997 544.719 265.355C545.941 267.713 547.659 269.531 549.875 270.81C552.091 272.088 554.719 272.727 557.759 272.727C559.776 272.727 561.623 272.443 563.299 271.875C564.975 271.307 566.409 270.455 567.603 269.318C568.796 268.182 569.705 266.79 570.33 265.142L587.12 266.25C586.267 270.284 584.52 273.807 581.878 276.818C579.265 279.801 575.884 282.131 571.736 283.807C567.617 285.455 562.858 286.278 557.461 286.278ZM618.015 286.236C613.838 286.236 610.117 285.511 606.85 284.062C603.583 282.585 600.998 280.412 599.094 277.543C597.219 274.645 596.282 271.037 596.282 266.719C596.282 263.082 596.949 260.028 598.284 257.557C599.62 255.085 601.438 253.097 603.739 251.591C606.04 250.085 608.654 248.949 611.58 248.182C614.534 247.415 617.631 246.875 620.87 246.562C624.676 246.165 627.745 245.795 630.074 245.454C632.404 245.085 634.094 244.545 635.145 243.835C636.196 243.125 636.722 242.074 636.722 240.682V240.426C636.722 237.727 635.87 235.639 634.165 234.162C632.489 232.685 630.103 231.946 627.006 231.946C623.739 231.946 621.14 232.67 619.208 234.119C617.276 235.54 615.998 237.329 615.373 239.489L598.583 238.125C599.435 234.148 601.111 230.71 603.611 227.812C606.111 224.886 609.336 222.642 613.284 221.079C617.262 219.489 621.864 218.693 627.091 218.693C630.728 218.693 634.208 219.119 637.532 219.972C640.884 220.824 643.853 222.145 646.438 223.935C649.051 225.724 651.111 228.026 652.617 230.838C654.123 233.622 654.875 236.96 654.875 240.852V285H637.659V275.923H637.148C636.097 277.969 634.691 279.773 632.929 281.335C631.168 282.869 629.051 284.077 626.58 284.957C624.108 285.81 621.253 286.236 618.015 286.236ZM623.213 273.707C625.884 273.707 628.242 273.182 630.287 272.131C632.333 271.051 633.938 269.602 635.103 267.784C636.267 265.966 636.85 263.906 636.85 261.605V254.659C636.282 255.028 635.5 255.369 634.506 255.682C633.54 255.966 632.446 256.236 631.225 256.491C630.003 256.719 628.782 256.932 627.56 257.131C626.338 257.301 625.23 257.457 624.236 257.599C622.105 257.912 620.245 258.409 618.654 259.091C617.063 259.773 615.827 260.696 614.946 261.861C614.066 262.997 613.625 264.418 613.625 266.122C613.625 268.594 614.52 270.483 616.31 271.79C618.128 273.068 620.429 273.707 623.213 273.707ZM687.113 197.727V285H668.959V197.727H687.113ZM744.811 285H725.039L755.167 197.727H778.945L809.03 285H789.257L767.397 217.67H766.715L744.811 285ZM743.576 250.696H790.28V265.099H743.576V250.696ZM819.534 285V197.727H853.966C860.586 197.727 866.225 198.991 870.884 201.52C875.543 204.02 879.094 207.5 881.537 211.96C884.009 216.392 885.245 221.506 885.245 227.301C885.245 233.097 883.995 238.21 881.495 242.642C878.995 247.074 875.373 250.526 870.628 252.997C865.912 255.469 860.202 256.704 853.498 256.704H831.551V241.918H850.515C854.066 241.918 856.992 241.307 859.293 240.085C861.623 238.835 863.355 237.116 864.492 234.929C865.657 232.713 866.239 230.17 866.239 227.301C866.239 224.403 865.657 221.875 864.492 219.716C863.355 217.528 861.623 215.838 859.293 214.645C856.963 213.423 854.009 212.812 850.429 212.812H837.986V285H819.534ZM915.681 197.727V285H897.23V197.727H915.681Z" fill="#F8F8F8"/>
<path d="M339.666 223.97C339.908 216.988 330.294 214.866 327.576 221.302L307.126 269.711C301.637 282.707 314.438 295.927 327.604 290.86L353.775 280.786C365.514 276.268 362.598 258.898 350.026 258.462C343.651 258.24 338.662 252.892 338.883 246.517L339.666 223.97Z" fill="url(#paint0_linear_1_46)"/>
<path d="M196.817 187.431C175.768 195.375 182.223 226.699 204.699 225.673C215.016 225.203 223.957 232.754 225.219 243.004L226.769 255.583C231.078 290.57 279.582 295.963 291.471 262.776L313.772 200.524C323.115 174.443 297.627 149.382 271.707 159.165L196.817 187.431Z" fill="url(#paint1_linear_1_46)"/>
<path d="M285.482 306.307C285.482 313.763 278.438 320.167 270.982 320.167C263.526 320.167 257.482 317.295 257.482 309.839C257.482 302.383 263.526 296.339 270.982 296.339C278.438 296.339 285.482 298.851 285.482 306.307Z" fill="url(#paint2_linear_1_46)"/>
<defs>
<linearGradient id="paint0_linear_1_46" x1="321.441" y1="245.745" x2="319.073" y2="313.927" gradientUnits="userSpaceOnUse">
<stop stop-color="#00D2D2"/>
<stop offset="1" stop-color="#003939"/>
</linearGradient>
<linearGradient id="paint1_linear_1_46" x1="238.482" y1="138.839" x2="238.482" y2="294.839" gradientUnits="userSpaceOnUse">
<stop stop-color="#00D2D2"/>
<stop offset="1" stop-color="#003939"/>
</linearGradient>
<linearGradient id="paint2_linear_1_46" x1="260.482" y1="296.167" x2="260.482" y2="323.167" gradientUnits="userSpaceOnUse">
<stop stop-color="#019A9A"/>
<stop offset="1" stop-color="#014E4E"/>
</linearGradient>
</defs>
</svg>
