<svg width="1321" height="1089" viewBox="0 0 1321 1089" fill="none" xmlns="http://www.w3.org/2000/svg">
<rect x="321" width="680" height="680" rx="241" fill="#2D2D2D"/>
<g clip-path="url(#clip0_5_76)">
<path d="M835.138 181H486C483.239 181 481 183.239 481 186V493C481 495.761 483.239 498 486 498H835.138C837.899 498 840.138 495.761 840.138 493V186C840.138 183.239 837.899 181 835.138 181Z" fill="#007676"/>
<path d="M840.138 181H481V207.01H840.138V181Z" fill="#F3F3F3"/>
<path d="M496.5 200C500.09 200 503 197.09 503 193.5C503 189.91 500.09 187 496.5 187C492.91 187 490 189.91 490 193.5C490 197.09 492.91 200 496.5 200Z" fill="#FF7A7A"/>
<path d="M515.5 200C519.09 200 522 197.09 522 193.5C522 189.91 519.09 187 515.5 187C511.91 187 509 189.91 509 193.5C509 197.09 511.91 200 515.5 200Z" fill="#FFCA0F"/>
<path d="M534.5 200C538.09 200 541 197.09 541 193.5C541 189.91 538.09 187 534.5 187C530.91 187 528 189.91 528 193.5C528 197.09 530.91 200 534.5 200Z" fill="#4FEE69"/>
<path d="M532.47 318.75C523.247 318.75 510.208 315.146 503 308.044L509.996 297.444C516.569 303.274 524.625 306.03 532.47 306.03C543.177 306.03 548.053 302.744 548.053 296.596C548.053 282.71 506.18 287.056 506.18 261.828C506.18 248.048 517.205 239.144 533.848 239.144C546.569 239.144 554.943 243.914 562.152 250.38L554.307 259.708C548.159 254.62 541.693 251.864 534.484 251.864C526.534 251.864 521.127 254.726 521.127 260.768C521.127 273.912 563 269.46 563 295.218C563 309.104 551.975 318.75 532.47 318.75ZM529.078 244.338V226H539.466V244.338H529.078ZM529.078 332V312.496H539.466V332H529.078Z" fill="#F3F3F3"/>
</g>
<path d="M408.39 872.4C407.39 873.7 405.49 876.1 404.59 877.5C399.89 885.3 390.39 898 380.49 905L370.09 896.7C378.19 891.8 385.99 883 388.59 878.1C382.49 878.1 342.69 878.1 336.39 878.1C332.29 878.1 328.89 878.3 324.19 878.8V864.8C328.09 865.4 332.29 865.9 336.39 865.9C342.69 865.9 385.09 865.9 390.29 865.9C393.09 865.9 398.59 865.5 400.49 865L408.39 872.4ZM367.69 885.8C367.69 910.6 367.09 931 339.89 945.7L328.19 936.2C331.49 935.1 335.09 933.4 338.79 930.6C351.39 921.8 353.79 911.3 353.79 894.9C353.79 891.7 353.69 889.1 353.19 885.8H367.69ZM414.21 901.2C432.11 896.6 446.71 890.1 457.91 883.2C468.11 876.9 479.51 866.9 486.01 859L496.81 869.2C487.71 878.4 475.51 887.8 463.71 894.9C452.41 901.6 436.21 909.1 420.41 913.8L414.21 901.2ZM455.81 889.7L470.01 886.3V931.4C470.01 935.8 470.21 942 470.91 944.5H455.01C455.41 942.1 455.81 935.8 455.81 931.4V889.7ZM526.71 864.6C529.91 865 534.11 865.3 537.41 865.3C543.71 865.3 564.31 865.3 570.21 865.3C573.61 865.3 577.51 865 580.91 864.6V877.5C577.51 877.3 573.61 877.1 570.21 877.1C564.31 877.1 543.71 877.1 537.51 877.1C534.01 877.1 529.81 877.3 526.71 877.5V864.6ZM515.21 890.1C518.11 890.5 521.61 890.8 524.71 890.8C531.01 890.8 584.31 890.8 590.21 890.8C592.31 890.8 596.71 890.6 599.41 890.1V903.2C596.91 903 593.01 902.9 590.21 902.9C584.31 902.9 531.01 902.9 524.71 902.9C521.81 902.9 517.91 903 515.21 903.2V890.1ZM566.31 897.1C566.31 910.2 564.01 920.2 559.81 928.6C556.31 935.5 548.61 943.3 539.71 947.8L527.91 939.3C535.01 936.5 542.11 930.8 546.11 924.9C551.11 917.4 552.41 907.9 552.41 897.2L566.31 897.1ZM586.91 857.7C589.41 861.3 593.01 867.7 594.81 871.4L586.81 874.8C584.81 870.7 581.71 864.8 579.01 860.9L586.91 857.7ZM598.71 853.2C601.31 856.9 605.01 863.3 606.81 866.8L598.91 870.2C596.81 866 593.61 860.2 590.81 856.4L598.71 853.2ZM703.41 872.4C702.41 873.7 700.51 876.1 699.61 877.5C694.91 885.3 685.41 898 675.51 905L665.11 896.7C673.21 891.8 681.01 883 683.61 878.1C677.51 878.1 637.71 878.1 631.41 878.1C627.31 878.1 623.91 878.3 619.21 878.8V864.8C623.11 865.4 627.31 865.9 631.41 865.9C637.71 865.9 680.11 865.9 685.31 865.9C688.11 865.9 693.61 865.5 695.51 865L703.41 872.4ZM662.71 885.8C662.71 910.6 662.11 931 634.91 945.7L623.21 936.2C626.51 935.1 630.11 933.4 633.81 930.6C646.41 921.8 648.81 911.3 648.81 894.9C648.81 891.7 648.71 889.1 648.21 885.8H662.71ZM750.51 855.5L763.01 857.7C759.11 875.5 752.31 892.2 744.11 902.8C741.61 900.9 735.91 897.7 732.71 896.3C741.31 887 747.41 871.4 750.51 855.5ZM769.01 883.6H775.21V894.6C775.21 905.5 781.21 927.3 805.91 938.1C803.61 941 800.01 946 798.11 949C780.21 940.8 770.81 923.1 768.91 914.1C766.51 923.1 756.31 940.2 736.01 949C734.61 946.2 730.81 941.1 728.71 938.9C755.81 928.1 762.51 906 762.51 894.6V883.6H769.01ZM710.71 924.6C716.31 919.2 725.31 910 733.61 900.9L740.41 911.2C733.51 919.3 725.31 928.1 718.41 934.9L710.71 924.6ZM713.61 870.1L722.11 861.3C728.11 865.2 736.21 871.2 740.11 875.5L731.01 885.4C727.51 881 719.71 874.5 713.61 870.1ZM754.81 872.4H795.81V884.3H748.91L754.81 872.4ZM791.81 872.4H793.61L795.91 871.7L804.81 876.9C801.91 887 797.11 897.4 793.21 904.5C790.71 903.2 785.91 900.7 783.01 899.6C786.21 893.5 790.31 882.9 791.81 875V872.4ZM831.31 898.5H883.21V892.3H821.01V882.6H895.01V908.3H831.31V898.5ZM824.71 898.5H836.71C834.81 908 832.21 919.2 830.11 926.5L818.11 925.1C820.41 918 823.11 907.3 824.71 898.5ZM828.91 914.2H891.91V924.2H825.91L828.91 914.2ZM888.81 914.2H900.81C900.81 914.2 900.71 917 900.51 918.5C899.51 931.8 898.31 938.3 895.81 941.1C893.61 943.4 891.21 944.2 888.11 944.5C885.31 944.9 880.51 944.9 875.41 944.8C875.21 941.3 873.81 936.8 872.01 933.8C876.21 934.3 880.41 934.4 882.21 934.3C883.81 934.3 884.71 934.2 885.71 933.4C887.11 932 888.01 927.2 888.81 915.6V914.2ZM851.81 884.9H863.61V949H851.81V884.9ZM849.41 917.8L858.71 921.8C849.71 933.1 834.61 943 820.11 948C818.41 945.1 815.01 940.8 812.51 938.5C826.61 934.6 841.81 926.6 849.41 917.8ZM825.01 862.8H856.51V872H825.01V862.8ZM864.71 862.8H903.51V872H864.71V862.8ZM825.51 854.3L836.61 857.3C832.51 867.2 825.81 877.4 819.51 883.6C817.31 881.8 812.51 878.7 809.71 877.2C816.21 871.7 822.11 862.9 825.51 854.3ZM866.21 854.3L877.51 857.2C873.71 867.1 867.21 876.7 860.71 882.8C858.51 880.8 853.61 877.6 850.81 876.1C857.51 871 863.21 862.7 866.21 854.3ZM828.71 870.1L838.31 866C840.91 869.9 843.91 875.4 845.21 878.9L835.01 883.4C834.01 879.8 831.31 874.3 828.71 870.1ZM872.11 870L882.01 866.5C885.21 870.2 888.91 875.4 890.61 879L880.21 883C878.81 879.5 875.31 874 872.11 870ZM914.91 871.5C918.81 871.4 922.81 871.2 924.71 871C933.01 870.2 949.51 868.8 967.81 867.2C978.21 866.4 989.11 865.7 996.21 865.4L996.31 878.3C990.91 878.3 982.31 878.4 976.91 879.6C964.91 882.8 955.81 895.8 955.81 907.7C955.81 924.1 971.21 930.1 988.11 930.9L983.41 944.6C962.51 943.3 942.71 932 942.71 910.3C942.71 896 950.81 884.6 957.51 879.5C948.21 880.5 927.71 882.7 916.21 885.2L914.91 871.5ZM982.01 888.1C984.41 891.6 988.01 897.7 989.91 901.7L982.41 905C979.81 899.6 977.71 895.6 974.61 891.2L982.01 888.1ZM993.11 883.5C995.71 887 999.51 892.9 1001.61 896.8L994.11 900.4C991.41 895 989.11 891.2 985.91 886.8L993.11 883.5ZM187.8 1005.7C184.7 1007.5 181.5 1009.2 177.9 1011C171.6 1014.2 162.2 1018.5 153.1 1024.5C144.8 1029.9 139.2 1035.7 139.2 1042.6C139.2 1049.8 146.1 1053.7 160 1053.7C170.3 1053.7 183.8 1052.1 192.7 1050L192.5 1064.4C184 1065.9 173.4 1066.9 160.4 1066.9C140.4 1066.9 125.4 1061.3 125.4 1044.1C125.4 1031.4 134.6 1022.5 146.4 1014.7C155.9 1008.5 166.1 1003.5 172.3 1000C176 997.8 178.9 996.1 181.5 993.9L187.8 1005.7ZM140.6 982.8C145.5 996.1 151.7 1008.2 156.4 1016.4L145 1023.1C139.6 1014 133.6 1000.9 128 988L140.6 982.8ZM189 981.3C191.5 985 195 991.3 196.9 995L188.9 998.5C186.8 994.4 183.8 988.4 181 984.6L189 981.3ZM200.8 976.8C203.4 980.5 207.1 986.9 208.9 990.4L201 993.8C198.9 989.7 195.7 983.8 192.9 980L200.8 976.8ZM268.2 986.8C267.1 988.1 266.1 989.8 265 991.5C260 998.6 253 1011.4 248.1 1020.3C251.8 1018.1 255.7 1017.2 259.5 1017.2C267 1017.2 271.5 1021.9 271.9 1030.3C272.1 1034.7 271.9 1042.7 272.4 1046.9C272.8 1050.8 275.5 1052.4 278.8 1052.4C287.5 1052.4 292.9 1041.1 295.7 1028.7L306.6 1037.5C301.3 1054.7 292.1 1066.1 276.7 1066.1C265.6 1066.1 260.5 1059.4 260 1052.2C259.7 1046.8 259.7 1038.7 259.4 1034.6C259.1 1031.1 257.2 1029 253.6 1029C246.8 1029 241.1 1036 237.6 1044.1C234.9 1049.9 231.5 1061.1 230 1066.4L215.9 1061.6C223.2 1041.6 243.7 1000.8 249.1 991.2C250.3 988.6 252.2 985.3 254 981.1L268.2 986.8ZM318.7 995.5C323 996 328.4 996.2 332 996.2C344.4 996.2 357.9 994.1 367.6 991L367.9 1002.6C359.3 1005 344.9 1007.6 332.1 1007.5C328.1 1007.5 323.9 1007.4 319.6 1007.2L318.7 995.5ZM357.6 980.5C356.3 985.8 353.9 995.6 351.2 1004.1C346.6 1018.5 337.6 1037.1 329.1 1048.9L317 1042.7C326 1031.7 335 1014.2 338.9 1003.4C341.3 996.2 343.5 986.9 343.8 979.2L357.6 980.5ZM381.1 1011.7C380.8 1015.9 380.9 1020.1 381 1024.5C381.2 1030.4 382.1 1045.3 382.1 1050.9C382.1 1060.2 377.1 1067.5 362.8 1067.5C350.4 1067.5 340.6 1061.9 340.6 1050.9C340.6 1041.2 348.8 1033.6 362.7 1033.6C380.2 1033.6 394 1042.4 402.3 1049.9L395.7 1060.7C388.5 1054 377.1 1043.7 362 1043.7C356.2 1043.7 352.4 1046.2 352.4 1049.7C352.4 1053.4 355.6 1056 361.1 1056C367.9 1056 370.1 1052.2 370.1 1046.6C370.1 1040.6 369 1022.2 368.5 1011.7H381.1ZM398.3 1017C392.5 1012.3 381.1 1005.8 374.2 1002.7L380.7 992.9C387.9 996 400.2 1002.7 405.4 1006.4L398.3 1017ZM444.2 1016.4H507.5V1026.5H444.2V1016.4ZM455.1 1031.3H496.2V1040.7H455.1V1031.3ZM458.9 1020.1L469.2 1022.7C464.1 1034.3 455.1 1044.3 445.6 1050.5C443.9 1048.5 439.9 1044.9 437.6 1043.3C446.8 1038.1 454.8 1029.8 458.9 1020.1ZM494.3 1031.3H505.5C505.5 1031.3 505.4 1034 505.2 1035.4C503.8 1055 502.2 1063.1 499.5 1066.1C497.6 1068.3 495.4 1069.1 492.8 1069.4C490.5 1069.7 486.7 1069.8 482.6 1069.7C482.5 1066.8 481.5 1062.7 480 1060.2C483.1 1060.5 485.8 1060.6 487.1 1060.6C488.5 1060.6 489.3 1060.4 490.1 1059.4C491.7 1057.6 493.2 1050.7 494.3 1032.9V1031.3ZM463.6 999.5V1004.3H489.5V999.5H463.6ZM463.6 986.9V991.7H489.5V986.9H463.6ZM453 978.6H500.6V1012.6H453V978.6ZM414.9 997.1H445.5V1008.5H414.9V997.1ZM425 977.3H436.2V1039.5H425V977.3ZM412.7 1041.6C420.4 1038.7 432.6 1033.6 444.2 1028.6L446.7 1038.9C436.7 1044.1 425.9 1049.5 417.1 1053.7L412.7 1041.6ZM482.9 1033.2L491 1037.6C487.2 1049.6 478.8 1063.5 469.9 1070.4C467.8 1068.1 464.3 1065.4 461.3 1063.7C471 1057.7 479.2 1044.8 482.9 1033.2ZM467.7 1033.3L475.6 1038C470.6 1048.3 460.1 1059.9 450.6 1066C448.7 1063.5 445.5 1060.6 442.7 1058.9C452.6 1053.9 462.9 1043.1 467.7 1033.3ZM515.8 981H560.2V991.9H515.8V981ZM568.4 1010H607.7V1021.5H568.4V1010ZM586.8 1018.1H598.7V1070.1H586.8V1018.1ZM563.6 985L578 988.4C577.9 989.4 577.2 989.9 575.4 990.2V1012.9C575.4 1029.1 573.1 1053.8 557.2 1069.9C555.6 1067.3 551.1 1063.2 548.3 1061.8C562.3 1047.6 563.6 1027.7 563.6 1012.8V985ZM519 999.4H530.4V1025C530.4 1038.5 529 1057.9 521.2 1070.2C519.3 1068.1 514.3 1064.3 511.8 1063C518.4 1052.2 519 1036.5 519 1024.9V999.4ZM596.5 977.1L607 986.1C596.3 991.4 582.2 995.5 570 998.2C569.3 995.5 567.4 991.1 565.9 988.6C577.1 985.8 589.3 981.4 596.5 977.1ZM525.6 999.4H558.1V1033.6H525.6V1022.9H546.5V1010.2H525.6V999.4ZM617.4 992.5C621.3 992.4 625.3 992.2 627.2 992C635.5 991.2 652 989.8 670.3 988.2C680.7 987.4 691.6 986.7 698.7 986.4L698.8 999.3C693.4 999.3 684.8 999.4 679.4 1000.6C667.4 1003.8 658.3 1016.8 658.3 1028.7C658.3 1045.1 673.7 1051.1 690.6 1051.9L685.9 1065.6C665 1064.3 645.2 1053 645.2 1031.3C645.2 1017 653.3 1005.6 660 1000.5C650.7 1001.5 630.2 1003.7 618.7 1006.2L617.4 992.5ZM684.5 1009.1C686.9 1012.6 690.5 1018.7 692.4 1022.7L684.9 1026C682.3 1020.6 680.2 1016.6 677.1 1012.2L684.5 1009.1ZM695.6 1004.5C698.2 1008 702 1013.9 704.1 1017.8L696.6 1021.4C693.9 1016 691.6 1012.2 688.4 1007.8L695.6 1004.5ZM757.4 980.9C756.5 984.6 756.1 987.2 755.6 989.8C754.4 998.4 749.7 1031.4 749.7 1041.5C749.7 1049.8 754.7 1054.3 764.5 1054.3C778.5 1054.3 786.2 1047.8 786.2 1039.6C786.2 1032.9 782.4 1026.4 775.9 1020.3L789.9 1017.3C796.6 1025.7 799.6 1032.7 799.6 1041.2C799.6 1056.3 786.1 1067.2 764.2 1067.2C748.4 1067.2 737.3 1060.4 737.3 1043.6C737.3 1033.4 742.1 1003 743.1 989C743.5 984.4 743.5 982.4 743.3 980.1L757.4 980.9ZM721.7 993.3C730.4 996.2 742.8 997.5 753 997.5C760.7 997.5 767.8 997 772.8 996.1L772.4 1008.1C766.5 1008.7 761 1009 752.6 1009C742.5 1009 730.3 1007.4 721.1 1004.8L721.7 993.3ZM719.5 1018.1C730.3 1021.8 741.9 1022.6 752 1022.6C758.1 1022.6 765.5 1022.2 772 1021.4L771.7 1033.3C766.2 1033.9 760.3 1034.2 754 1034.2C740.7 1034.2 728 1032.8 718.9 1030.2L719.5 1018.1ZM843.6 985.9H907.4V996.8H843.6V985.9ZM856.7 1013.6V1023.5H893.2V1013.6H856.7ZM845.8 1003.8H904.7V1033.3H845.8V1003.8ZM855.2 1034.3C864.1 1048.7 883 1056.8 908.9 1059.2C906.4 1061.8 903.4 1066.6 901.9 1069.9C874.8 1066.2 856.3 1056.1 845.4 1037.3L855.2 1034.3ZM868.9 976.7H880.7V1022.4C880.7 1042.8 875.6 1061.4 846.9 1070C845.5 1067.3 842 1062.5 839.4 1060C866.3 1054 868.9 1038.7 868.9 1022.3V976.7ZM836 975.8L847.2 979.4C840.4 996.4 829.4 1014.3 818 1025.6C817 1022.8 813.8 1016.2 811.8 1013.3C821.3 1004.3 830.6 990.1 836 975.8ZM826.3 1003.7L837.6 992.3L837.7 992.4V1070.2H826.3V1003.7ZM941.7 980C952.9 982.1 972.1 984.2 982.4 984.8L980.8 996.6C970.3 995.7 951.7 993.5 939.7 991.6L941.7 980ZM986 1011.7C983.3 1013.5 981.2 1015.3 979.4 1016.8C974.9 1020.7 965.5 1029.4 963.1 1031.9C964 1031.9 965.8 1032.2 967 1032.7C969.8 1033.5 971.6 1035.7 973 1039.5C973.9 1042.1 975 1045.9 975.8 1048.6C976.8 1051.7 979 1053.2 982.9 1053.2C990.5 1053.2 997.4 1052.5 1002.5 1051.5L1001.6 1064.6C997.5 1065.3 987.2 1066 982 1066C972.6 1066 967.4 1063.9 965 1057.5C963.9 1054.5 962.8 1049.8 962 1047.3C960.9 1043.7 958.8 1042.4 956.7 1042.4C954.7 1042.4 952.6 1044 950.2 1046.5C946.7 1050 939.2 1058.2 932.3 1066.9L920.5 1058.7C922.3 1057.1 924.7 1055 927.4 1052.4C932.6 1047.2 953 1026.9 962.1 1017.3C955.1 1017.5 943.2 1018.5 937.5 1019C934 1019.3 930.9 1019.8 928.8 1020.2L927.7 1006.4C930 1006.6 933.6 1006.7 937.2 1006.7C942 1006.6 964.6 1005.6 973 1004.6C974.8 1004.4 977.6 1003.8 978.6 1003.4L986 1011.7ZM1070.2 980.2C1069.9 982.2 1069.6 984.7 1069.5 987.3C1069.3 992.4 1069.2 1006.6 1069.2 1015C1069.2 1026 1070.8 1044.1 1070.8 1052C1070.8 1060.6 1064.3 1067.2 1051.2 1067.2C1035.2 1067.2 1026.8 1061.1 1026.8 1050.5C1026.8 1040.4 1036.1 1033.3 1051.4 1033.3C1073.4 1033.3 1089.8 1044.1 1098.1 1051.1L1090.9 1062.3C1081.4 1053.3 1066.9 1043.6 1049.8 1043.6C1042.8 1043.6 1038.9 1046.3 1038.9 1049.8C1038.9 1053.6 1042.4 1055.9 1049.3 1055.9C1054.6 1055.9 1058.2 1054.4 1058.2 1048.6C1058.2 1042.6 1057.1 1024.7 1057.1 1015C1057.1 1005.4 1057.2 992.7 1057.2 987C1057.2 985.2 1057 982.1 1056.6 980.2H1070.2ZM1028.7 989.5C1035.8 990.7 1047.3 991.7 1053.4 991.7C1067 991.7 1080.1 991 1094.7 988.7L1094.6 1000.1C1084.4 1001.5 1068.5 1002.7 1053.5 1002.7C1047.1 1002.7 1035.5 1001.8 1028.9 1001L1028.7 989.5ZM1028.1 1011.1C1034.7 1012.3 1046.9 1013 1052.2 1013C1070.7 1013 1083.6 1011.8 1095.9 1010.2L1095.8 1022C1082 1023.6 1071.1 1024.2 1052.1 1024.2C1046.2 1024.2 1034.9 1023.7 1028.3 1022.9L1028.1 1011.1ZM1175.8 980.4C1175.5 982.1 1175.2 987.4 1175.1 989C1174.8 995.6 1175 1016 1175.1 1024L1162.6 1019.8C1162.6 1013.6 1162.6 994.4 1162.2 989.1C1161.9 985.1 1161.5 981.7 1161.3 980.4H1175.8ZM1119.2 992.9C1134.1 992.9 1160.5 992.1 1173 992.1C1183.2 992.1 1198.4 992 1204 992.1L1203.8 1003.9C1197.6 1003.6 1187.4 1003.3 1172.7 1003.3C1154.5 1003.3 1134.6 1004.1 1119.5 1004.9L1119.2 992.9ZM1173.4 1022.5C1173.4 1038.8 1167.4 1046.9 1155.9 1046.9C1148.2 1046.9 1138.6 1040.8 1138.6 1028.6C1138.6 1017.3 1147.8 1009.9 1158.6 1009.9C1171.8 1009.9 1178.7 1019.6 1178.7 1032C1178.7 1045.1 1171 1061.6 1146.6 1068.5L1136 1057.9C1153 1054.2 1166.3 1047.5 1166.3 1030C1166.3 1023.5 1162.8 1020.4 1158.4 1020.4C1154.5 1020.4 1150.6 1023.1 1150.6 1028.4C1150.6 1032.9 1154.3 1035.8 1158.4 1035.8C1163.1 1035.8 1167.2 1031.8 1164 1019.9L1173.4 1022.5Z" fill="black"/>
<defs>
<clipPath id="clip0_5_76">
<rect width="360" height="317" fill="white" transform="translate(481 181)"/>
</clipPath>
</defs>
</svg>
