<svg width="1321" height="1071" viewBox="0 0 1321 1071" fill="none" xmlns="http://www.w3.org/2000/svg">
<rect x="320" width="680" height="680" rx="241" fill="#2D2D2D"/>
<rect x="505" y="177" width="310" height="310" fill="#019A9A"/>
<path d="M660 529L815 487H505L660 529Z" fill="#014E4E"/>
<path d="M815 178.5C815 174.757 810.991 171.051 803.201 167.594C795.412 164.136 783.995 160.994 769.602 158.347C755.208 155.701 738.121 153.602 719.316 152.169C700.51 150.737 680.355 150 660 150C639.645 150 619.49 150.737 600.684 152.169C581.879 153.602 564.792 155.701 550.398 158.347C536.005 160.994 524.588 164.136 516.799 167.594C509.009 171.051 505 174.757 505 178.5L660 178.5H815Z" fill="#324A4A"/>
<rect x="645" y="268" width="30" height="127" fill="#F3F3F3"/>
<rect x="597" y="347" width="30" height="127" transform="rotate(-90 597 347)" fill="#F3F3F3"/>
<path d="M453.7 886.8H466V936C466 942.4 464.7 945.4 460.3 947.2C455.9 948.9 449.8 949.2 441.3 949.2C440.7 945.9 438.7 940.9 437 937.7C442.8 938 449.4 938 451.2 937.9C453.1 937.8 453.7 937.4 453.7 935.8V886.8ZM429 880.8H496.5V931.8H484.3V891.3H429V880.8ZM413.8 898.4H507.4V909.2H413.8V898.4ZM425.1 916.7H490.2V927.6H425.1V916.7ZM441.9 855.1L454.8 857.6C447.3 869.9 437.4 881.3 423.1 890.8C421.2 888.1 417.1 884.2 414.3 882.4C427.7 874.8 436.9 864.3 441.9 855.1ZM444.8 863.3H471.9V873.6H437.1L444.8 863.3ZM469.8 863.3H472.7L474.7 862.8L483.3 868.8C478.7 875.3 471.1 883.6 464.9 888.8C462.7 886.9 458.9 884.3 456.5 882.8C461.6 878.1 467.4 870.4 469.8 865.7V863.3ZM536.4 868.6C535.7 872.1 535.2 878 535.2 880.8C535.2 887.3 535.2 894.7 535.8 902C537.2 916.4 540.2 926.3 546.5 926.3C551.3 926.3 555.2 914.5 557.1 906.6L567.2 918.7C560.5 936.2 554.3 942.2 546.3 942.2C535.2 942.2 525.7 932.4 522.9 905.6C521.9 896.4 521.8 884.6 521.8 878.5C521.8 875.8 521.7 871.5 521 868.4L536.4 868.6ZM586.4 870.8C595.9 882.3 603.6 907.3 604.7 922.6L591.5 927.8C590 911.6 584.6 887.4 573.7 875L586.4 870.8ZM669.6 871.5C668.2 881.7 666.2 893.4 662.7 905.2C656.7 925.4 648.1 937.8 637.2 937.8C626 937.8 616.8 925.5 616.8 908.6C616.8 885.6 636.9 865.8 662.8 865.8C687.5 865.8 703.2 883 703.2 904.9C703.2 925.9 690.3 940.8 665.1 944.7L657.5 932.9C661.4 932.4 664.2 931.9 666.9 931.3C679.6 928.2 689.6 919.1 689.6 904.4C689.6 888.7 679.8 877.5 662.5 877.5C641.3 877.5 629.7 894.8 629.7 907.4C629.7 917.5 633.7 922.4 637.5 922.4C641.8 922.4 645.6 916 649.8 902.5C652.7 893.1 654.9 881.6 655.9 871.1L669.6 871.5ZM718.7 874.5C723 875 728.4 875.2 732 875.2C744.4 875.2 757.9 873.1 767.6 870L767.9 881.6C759.3 884 744.9 886.6 732.1 886.5C728.1 886.5 723.9 886.4 719.6 886.2L718.7 874.5ZM757.6 859.5C756.3 864.8 753.9 874.6 751.2 883.1C746.6 897.5 737.6 916.1 729.1 927.9L717 921.7C726 910.7 735 893.2 738.9 882.4C741.3 875.2 743.5 865.9 743.8 858.2L757.6 859.5ZM781.1 890.7C780.8 894.9 780.9 899.1 781 903.5C781.2 909.4 782.1 924.3 782.1 929.9C782.1 939.2 777.1 946.5 762.8 946.5C750.4 946.5 740.6 940.9 740.6 929.9C740.6 920.2 748.8 912.6 762.7 912.6C780.2 912.6 794 921.4 802.3 928.9L795.7 939.7C788.5 933 777.1 922.7 762 922.7C756.2 922.7 752.4 925.2 752.4 928.7C752.4 932.4 755.6 935 761.1 935C767.9 935 770.1 931.2 770.1 925.6C770.1 919.6 769 901.2 768.5 890.7H781.1ZM798.3 896C792.5 891.3 781.1 884.8 774.2 881.7L780.7 871.9C787.9 875 800.2 881.7 805.4 885.4L798.3 896ZM836.4 868.6C835.7 872.1 835.2 878 835.2 880.8C835.2 887.3 835.2 894.7 835.8 902C837.2 916.4 840.2 926.3 846.5 926.3C851.3 926.3 855.2 914.5 857.1 906.6L867.2 918.7C860.5 936.2 854.3 942.2 846.3 942.2C835.2 942.2 825.7 932.4 822.9 905.6C821.9 896.4 821.8 884.6 821.8 878.5C821.8 875.8 821.7 871.5 821 868.4L836.4 868.6ZM886.4 870.8C895.9 882.3 903.6 907.3 904.7 922.6L891.5 927.8C890 911.6 884.6 887.4 873.7 875L886.4 870.8ZM153.8 976H166.6V994.2H153.8V976ZM117.9 985H203.4V1008.7H190.6V996.1H130.1V1008.7H117.9V985ZM150.2 998.5L162.8 1001.2C155.2 1017.3 145 1037.2 137.8 1049.7L125.2 1046.3C132.7 1034.1 143.3 1013.9 150.2 998.5ZM175.4 1021.4L189 1023.2C180.2 1053.9 159.2 1065.1 124.9 1070.1C123.8 1067.2 120.3 1061.8 118.1 1059.1C150.9 1055.9 170 1047 175.4 1021.4ZM115.9 1013.4H205.2V1024.7H115.9V1013.4ZM132.7 1044.2L141.4 1035.9C160.7 1041.2 187.2 1051.4 201.2 1060L191.5 1069.8C178.9 1061.4 152.9 1050.2 132.7 1044.2ZM260.1 987.5C251.8 999.3 236.5 1012.8 220.1 1021.9C218.5 1019.1 215.1 1014.7 212.5 1012.2C229.7 1003.5 245.9 988.1 253.3 975.7H265.8C276.5 991.1 292.8 1004.2 308.7 1011C305.7 1014.1 303 1018.1 300.8 1021.8C285.4 1013.3 268.6 999.4 260.1 987.5ZM226.1 1034.4H294.5V1044.8H226.1V1034.4ZM231.2 1012.3H289.9V1022.8H231.2V1012.3ZM218.1 1056.9H303.5V1067.6H218.1V1056.9ZM253.8 1017H266.5V1062.9H253.8V1017ZM318.7 995.5C323 996 328.4 996.2 332 996.2C344.4 996.2 357.9 994.1 367.6 991L367.9 1002.6C359.3 1005 344.9 1007.6 332.1 1007.5C328.1 1007.5 323.9 1007.4 319.6 1007.2L318.7 995.5ZM357.6 980.5C356.3 985.8 353.9 995.6 351.2 1004.1C346.6 1018.5 337.6 1037.1 329.1 1048.9L317 1042.7C326 1031.7 335 1014.2 338.9 1003.4C341.3 996.2 343.5 986.9 343.8 979.2L357.6 980.5ZM381.1 1011.7C380.8 1015.9 380.9 1020.1 381 1024.5C381.2 1030.4 382.1 1045.3 382.1 1050.9C382.1 1060.2 377.1 1067.5 362.8 1067.5C350.4 1067.5 340.6 1061.9 340.6 1050.9C340.6 1041.2 348.8 1033.6 362.7 1033.6C380.2 1033.6 394 1042.4 402.3 1049.9L395.7 1060.7C388.5 1054 377.1 1043.7 362 1043.7C356.2 1043.7 352.4 1046.2 352.4 1049.7C352.4 1053.4 355.6 1056 361.1 1056C367.9 1056 370.1 1052.2 370.1 1046.6C370.1 1040.6 369 1022.2 368.5 1011.7H381.1ZM398.3 1017C392.5 1012.3 381.1 1005.8 374.2 1002.7L380.7 992.9C387.9 996 400.2 1002.7 405.4 1006.4L398.3 1017ZM444.2 1016.4H507.5V1026.5H444.2V1016.4ZM455.1 1031.3H496.2V1040.7H455.1V1031.3ZM458.9 1020.1L469.2 1022.7C464.1 1034.3 455.1 1044.3 445.6 1050.5C443.9 1048.5 439.9 1044.9 437.6 1043.3C446.8 1038.1 454.8 1029.8 458.9 1020.1ZM494.3 1031.3H505.5C505.5 1031.3 505.4 1034 505.2 1035.4C503.8 1055 502.2 1063.1 499.5 1066.1C497.6 1068.3 495.4 1069.1 492.8 1069.4C490.5 1069.7 486.7 1069.8 482.6 1069.7C482.5 1066.8 481.5 1062.7 480 1060.2C483.1 1060.5 485.8 1060.6 487.1 1060.6C488.5 1060.6 489.3 1060.4 490.1 1059.4C491.7 1057.6 493.2 1050.7 494.3 1032.9V1031.3ZM463.6 999.5V1004.3H489.5V999.5H463.6ZM463.6 986.9V991.7H489.5V986.9H463.6ZM453 978.6H500.6V1012.6H453V978.6ZM414.9 997.1H445.5V1008.5H414.9V997.1ZM425 977.3H436.2V1039.5H425V977.3ZM412.7 1041.6C420.4 1038.7 432.6 1033.6 444.2 1028.6L446.7 1038.9C436.7 1044.1 425.9 1049.5 417.1 1053.7L412.7 1041.6ZM482.9 1033.2L491 1037.6C487.2 1049.6 478.8 1063.5 469.9 1070.4C467.8 1068.1 464.3 1065.4 461.3 1063.7C471 1057.7 479.2 1044.8 482.9 1033.2ZM467.7 1033.3L475.6 1038C470.6 1048.3 460.1 1059.9 450.6 1066C448.7 1063.5 445.5 1060.6 442.7 1058.9C452.6 1053.9 462.9 1043.1 467.7 1033.3ZM515.8 981H560.2V991.9H515.8V981ZM568.4 1010H607.7V1021.5H568.4V1010ZM586.8 1018.1H598.7V1070.1H586.8V1018.1ZM563.6 985L578 988.4C577.9 989.4 577.2 989.9 575.4 990.2V1012.9C575.4 1029.1 573.1 1053.8 557.2 1069.9C555.6 1067.3 551.1 1063.2 548.3 1061.8C562.3 1047.6 563.6 1027.7 563.6 1012.8V985ZM519 999.4H530.4V1025C530.4 1038.5 529 1057.9 521.2 1070.2C519.3 1068.1 514.3 1064.3 511.8 1063C518.4 1052.2 519 1036.5 519 1024.9V999.4ZM596.5 977.1L607 986.1C596.3 991.4 582.2 995.5 570 998.2C569.3 995.5 567.4 991.1 565.9 988.6C577.1 985.8 589.3 981.4 596.5 977.1ZM525.6 999.4H558.1V1033.6H525.6V1022.9H546.5V1010.2H525.6V999.4ZM659.1 980.8C658.3 984.5 657 990.4 654.2 997.6C652.1 1002.5 649.2 1008.2 646.4 1012.2C649.1 1011 654.4 1010.3 657.8 1010.3C666.1 1010.3 672.4 1015.2 672.4 1024.5C672.4 1029.9 672.7 1040.8 672.8 1047.1H660.8C661.2 1042.4 661.4 1033.9 661.3 1028.5C661.3 1022.1 657.3 1020 653.1 1020C647.6 1020 641.3 1023.3 637.5 1026.9C634.5 1029.9 631.7 1033.5 628.3 1037.9L617.6 1029.9C630.4 1018.1 638.1 1007.3 642.3 996.3C644.3 990.9 645.6 984.8 645.9 979.7L659.1 980.8ZM621.4 990.1C626.5 990.8 633.9 991.2 639 991.2C652.2 991.2 670.3 990.5 684.8 987.9L684.7 999.5C670.6 1001.5 650.5 1002.4 638.3 1002.4C634.2 1002.4 626.9 1002.2 621.4 1001.7V990.1ZM700.6 1018.5C697.5 1019.4 692.1 1021.4 688.7 1022.7C682.2 1025.2 673.2 1028.8 663.8 1033.6C654.7 1038.3 649.8 1042.6 649.8 1048.1C649.8 1053.6 654.6 1055.1 664.3 1055.1C672.8 1055.1 684 1054 692.8 1052.2L692.4 1065.1C685.7 1066 673.5 1066.9 664 1066.9C648.4 1066.9 636.7 1063 636.7 1050.1C636.7 1036.2 651 1028 663 1022C672.2 1017.2 678.5 1014.8 684.5 1012C688.4 1010.3 691.9 1008.7 695.7 1006.8L700.6 1018.5ZM736.4 976.8H748.9V1034.1H736.4V976.8ZM771.9 976.8H784.5V1034.1H771.9V976.8ZM714.9 1026.2H806.4V1037.9H714.9V1026.2ZM718.3 995.4H803.3V1006.9H718.3V995.4ZM767.4 1047.3L778.4 1041.3C786.9 1047.6 799.3 1056.9 805.7 1063L793.8 1070C788.2 1064 776.3 1054.2 767.4 1047.3ZM740.8 1041.7L753.5 1046.6C746 1055.3 735 1064.4 725.3 1070C722.8 1067.5 718.3 1063.7 715.5 1061.6C724.9 1056.7 735.6 1048.4 740.8 1041.7ZM855.2 991.1C867.5 992.8 887.5 992.3 898.2 991V1003.9C886 1005.1 867.8 1005.1 855.3 1003.9L855.2 991.1ZM863.2 1033.8C862.4 1037.2 862 1039.6 862 1042.2C862 1046.7 865.9 1049.4 876.1 1049.4C885 1049.4 892.4 1048.6 901.1 1046.7L901.4 1060.2C894.9 1061.5 886.8 1062.2 875.5 1062.2C858.3 1062.2 850 1056 850 1045.8C850 1041.8 850.6 1037.9 851.8 1032.8L863.2 1033.8ZM839.8 984.4C839.1 986.5 837.8 991.6 837.4 993.4C836 1000 832.5 1020 832.5 1030C832.5 1032 832.6 1034.5 832.9 1036.5C834.4 1033.1 836 1029.7 837.5 1026.3L843.7 1031.2C840.8 1039.6 837.5 1050.4 836.5 1055.7C836.2 1057.2 835.9 1059.4 835.9 1060.4C836 1061.5 836 1063.2 836.1 1064.6L824.6 1065.3C822.6 1058.5 820.7 1046.3 820.7 1032.7C820.7 1017.6 823.7 1000.8 824.8 993C825.2 990.3 825.7 986.5 825.8 983.3L839.8 984.4ZM959.7 992.4H1007.7V1003.8H954.1L959.7 992.4ZM972.9 1014.4H1005.1V1025.3H972.9V1014.4ZM972.8 1036.5H1006.4V1047.7H972.8V1036.5ZM966.8 996.2H979.1V1070H966.8V996.2ZM962 977L973.6 980.1C968 996.3 959 1012.9 949.8 1023.3C947.9 1021.1 943.3 1016.8 940.7 1014.9C949.5 1005.9 957.4 991.5 962 977ZM935.6 976.5L947.2 980.2C940.7 997.2 930.2 1015.5 919.2 1026.9C918.1 1023.9 914.7 1017.1 912.6 1014.1C921.8 1005 930.5 990.8 935.6 976.5ZM925.5 1004.1L937.5 992L937.6 992.1V1069.9H925.5V1004.1ZM1032.1 985.6C1033.8 985.8 1036.9 986 1040.3 986C1045.6 986 1067.9 985.7 1074.5 985.3C1076.8 985.1 1079.8 984.6 1081.7 984.2L1088.4 993C1086.5 993.9 1084.2 995.5 1082.8 996.4C1077.1 1000.7 1067.4 1008.3 1058.8 1015C1062 1014 1065.7 1013.6 1068.2 1013.6C1085.8 1013.6 1097.9 1024 1097.9 1038C1097.9 1057.8 1080.6 1069.4 1043.6 1066.5L1040.1 1053.4C1067.7 1057 1084.1 1051.2 1084.1 1038C1084.1 1030.1 1076.9 1024.2 1065.5 1024.2C1049.9 1024.2 1039.1 1034.1 1028.3 1045L1018.9 1035.1C1032.3 1024.9 1056.9 1004.7 1064.8 996.5C1059.4 996.7 1045.5 997.4 1040.7 997.7C1038.2 997.9 1034.6 998.3 1032.4 998.6L1032.1 985.6ZM1178.9 1028.3C1178.9 1021.7 1173.8 1016.4 1164.4 1016.4C1153.4 1016.4 1143.4 1019.7 1138.4 1021.2C1135.5 1022.1 1131.5 1023.6 1128.7 1024.8L1124.9 1010.4C1128.3 1010.2 1132.5 1009.4 1135.8 1008.7C1143.1 1007.1 1154.3 1004.2 1166.1 1004.2C1181.9 1004.2 1193 1013.2 1193 1028.8C1193 1050.3 1173.1 1063.5 1145.3 1067.4L1138.2 1054.9C1163 1052.1 1178.9 1044 1178.9 1028.3ZM1139.6 980.3C1151.3 982.8 1174 984.8 1184.5 984.8L1182.6 997.1C1170.9 996.3 1149.2 994.3 1137.7 992.3L1139.6 980.3Z" fill="black"/>
</svg>
